<mxfile host="app.diagrams.net" modified="2023-07-16T14:58:59.276Z" agent="Mozilla/5.0 (Windows NT 10.0; Win64; x64) AppleWebKit/537.36 (KHTML, like Gecko) Chrome/114.0.0.0 Safari/537.36" etag="REx6BW9lrVlvVS6i-9LI" version="21.6.2" type="github" pages="3">
  <diagram name="PÃ¡gina-1" id="oNRi-yFwODon11nVffu_">
    <mxGraphModel dx="1258" dy="1411" grid="0" gridSize="10" guides="1" tooltips="1" connect="1" arrows="1" fold="1" page="0" pageScale="1" pageWidth="1200" pageHeight="1920" math="0" shadow="0">
      <root>
        <mxCell id="0" />
        <mxCell id="1" parent="0" />
        <mxCell id="_6nD0CdhUFyhvwUly3kX-1" style="edgeStyle=none;curved=1;rounded=0;orthogonalLoop=1;jettySize=auto;html=1;exitX=0.025;exitY=-0.033;exitDx=0;exitDy=0;entryX=1;entryY=0;entryDx=0;entryDy=0;fontSize=12;startSize=8;endSize=8;endArrow=none;endFill=0;exitPerimeter=0;" parent="1" source="_6nD0CdhUFyhvwUly3kX-108" target="_6nD0CdhUFyhvwUly3kX-81" edge="1">
          <mxGeometry relative="1" as="geometry">
            <mxPoint x="710.0000000000014" y="-62" as="sourcePoint" />
            <mxPoint x="640" y="20" as="targetPoint" />
          </mxGeometry>
        </mxCell>
        <mxCell id="_6nD0CdhUFyhvwUly3kX-2" style="edgeStyle=none;curved=1;rounded=0;orthogonalLoop=1;jettySize=auto;html=1;exitX=0;exitY=0.5;exitDx=0;exitDy=0;entryX=1;entryY=0.5;entryDx=0;entryDy=0;fontSize=12;startSize=8;endSize=8;endArrow=none;endFill=0;" parent="1" source="_6nD0CdhUFyhvwUly3kX-101" target="_6nD0CdhUFyhvwUly3kX-88" edge="1">
          <mxGeometry relative="1" as="geometry">
            <mxPoint x="710" y="-114" as="sourcePoint" />
            <mxPoint x="636" y="-95" as="targetPoint" />
          </mxGeometry>
        </mxCell>
        <mxCell id="_6nD0CdhUFyhvwUly3kX-3" style="edgeStyle=none;curved=1;rounded=0;orthogonalLoop=1;jettySize=auto;html=1;exitX=0;exitY=0.5;exitDx=0;exitDy=0;entryX=1;entryY=0.5;entryDx=0;entryDy=0;fontSize=12;startSize=8;endSize=8;endArrow=none;endFill=0;" parent="1" source="_6nD0CdhUFyhvwUly3kX-82" target="_6nD0CdhUFyhvwUly3kX-74" edge="1">
          <mxGeometry relative="1" as="geometry">
            <mxPoint x="360" y="46" as="sourcePoint" />
            <mxPoint x="294" y="-69" as="targetPoint" />
          </mxGeometry>
        </mxCell>
        <mxCell id="_6nD0CdhUFyhvwUly3kX-4" style="edgeStyle=none;curved=1;rounded=0;orthogonalLoop=1;jettySize=auto;html=1;exitX=0;exitY=0.5;exitDx=0;exitDy=0;entryX=1;entryY=0.5;entryDx=0;entryDy=0;fontSize=12;startSize=8;endSize=8;endArrow=none;endFill=0;" parent="1" source="_6nD0CdhUFyhvwUly3kX-88" target="_6nD0CdhUFyhvwUly3kX-70" edge="1">
          <mxGeometry relative="1" as="geometry">
            <mxPoint x="360" y="-95" as="sourcePoint" />
            <mxPoint x="294" y="-95" as="targetPoint" />
          </mxGeometry>
        </mxCell>
        <mxCell id="_6nD0CdhUFyhvwUly3kX-5" style="edgeStyle=none;curved=1;rounded=0;orthogonalLoop=1;jettySize=auto;html=1;exitX=-0.021;exitY=0.245;exitDx=0;exitDy=0;entryX=1;entryY=0.5;entryDx=0;entryDy=0;fontSize=12;startSize=8;endSize=8;endArrow=none;endFill=0;exitPerimeter=0;" parent="1" source="_6nD0CdhUFyhvwUly3kX-54" target="_6nD0CdhUFyhvwUly3kX-66" edge="1">
          <mxGeometry relative="1" as="geometry">
            <mxPoint x="360" y="-195" as="sourcePoint" />
            <mxPoint x="268.32400000000007" y="-120.6880000000001" as="targetPoint" />
          </mxGeometry>
        </mxCell>
        <mxCell id="_6nD0CdhUFyhvwUly3kX-6" style="edgeStyle=none;curved=1;rounded=0;orthogonalLoop=1;jettySize=auto;html=1;exitX=1.017;exitY=-0.179;exitDx=0;exitDy=0;entryX=0;entryY=0.5;entryDx=0;entryDy=0;fontSize=12;startSize=8;endSize=8;endArrow=none;endFill=0;exitPerimeter=0;" parent="1" source="_6nD0CdhUFyhvwUly3kX-54" target="_6nD0CdhUFyhvwUly3kX-58" edge="1">
          <mxGeometry relative="1" as="geometry">
            <mxPoint x="600" y="-221" as="sourcePoint" />
            <mxPoint x="708" y="-224" as="targetPoint" />
          </mxGeometry>
        </mxCell>
        <mxCell id="_6nD0CdhUFyhvwUly3kX-7" style="edgeStyle=none;curved=1;rounded=0;orthogonalLoop=1;jettySize=auto;html=1;fontSize=12;startSize=8;endSize=8;endArrow=none;endFill=0;" parent="1" edge="1">
          <mxGeometry relative="1" as="geometry">
            <mxPoint x="152" y="-390" as="sourcePoint" />
            <mxPoint x="152" y="-300" as="targetPoint" />
          </mxGeometry>
        </mxCell>
        <mxCell id="_6nD0CdhUFyhvwUly3kX-8" style="edgeStyle=none;curved=1;rounded=0;orthogonalLoop=1;jettySize=auto;html=1;fontSize=12;startSize=8;endSize=8;endArrow=none;endFill=0;exitX=1.007;exitY=1.013;exitDx=0;exitDy=0;exitPerimeter=0;entryX=0.008;entryY=-0.295;entryDx=0;entryDy=0;entryPerimeter=0;" parent="1" source="_6nD0CdhUFyhvwUly3kX-58" target="_6nD0CdhUFyhvwUly3kX-62" edge="1">
          <mxGeometry relative="1" as="geometry">
            <mxPoint x="948" y="-224" as="sourcePoint" />
            <mxPoint x="1072" y="-224" as="targetPoint" />
          </mxGeometry>
        </mxCell>
        <mxCell id="_6nD0CdhUFyhvwUly3kX-9" value="N" style="text;html=1;align=center;verticalAlign=middle;resizable=0;points=[];autosize=1;strokeColor=none;fillColor=none;fontSize=16;rotation=180;" parent="1" vertex="1">
          <mxGeometry x="982" y="-246" width="40" height="30" as="geometry" />
        </mxCell>
        <mxCell id="_6nD0CdhUFyhvwUly3kX-10" style="edgeStyle=none;curved=1;rounded=0;orthogonalLoop=1;jettySize=auto;html=1;exitX=0.5;exitY=0;exitDx=0;exitDy=0;entryX=0.5;entryY=1;entryDx=0;entryDy=0;fontSize=12;startSize=8;endSize=8;endArrow=none;endFill=0;" parent="1" source="_6nD0CdhUFyhvwUly3kX-118" edge="1">
          <mxGeometry relative="1" as="geometry">
            <mxPoint x="1192" y="-114" as="sourcePoint" />
            <mxPoint x="1192" y="-198" as="targetPoint" />
          </mxGeometry>
        </mxCell>
        <mxCell id="_6nD0CdhUFyhvwUly3kX-11" style="edgeStyle=none;curved=1;rounded=0;orthogonalLoop=1;jettySize=auto;html=1;exitX=0;exitY=0;exitDx=0;exitDy=0;entryX=1;entryY=0.5;entryDx=0;entryDy=0;fontSize=12;startSize=8;endSize=8;endArrow=none;endFill=0;" parent="1" source="_6nD0CdhUFyhvwUly3kX-130" target="_6nD0CdhUFyhvwUly3kX-105" edge="1">
          <mxGeometry relative="1" as="geometry">
            <mxPoint x="1040.9999999999995" y="70" as="sourcePoint" />
            <mxPoint x="971.9999999999991" y="-62" as="targetPoint" />
          </mxGeometry>
        </mxCell>
        <mxCell id="_6nD0CdhUFyhvwUly3kX-12" value="*" style="text;html=1;align=center;verticalAlign=middle;resizable=0;points=[];autosize=1;strokeColor=none;fillColor=none;" parent="1" vertex="1">
          <mxGeometry x="-285" y="-2" width="30" height="30" as="geometry" />
        </mxCell>
        <mxCell id="_6nD0CdhUFyhvwUly3kX-13" style="edgeStyle=none;curved=1;rounded=0;orthogonalLoop=1;jettySize=auto;html=1;exitX=0.75;exitY=0;exitDx=0;exitDy=0;fontSize=12;startSize=8;endSize=8;" parent="1" edge="1">
          <mxGeometry relative="1" as="geometry">
            <mxPoint x="42" y="642.0000000000002" as="sourcePoint" />
            <mxPoint x="42" y="642.0000000000002" as="targetPoint" />
          </mxGeometry>
        </mxCell>
        <mxCell id="_6nD0CdhUFyhvwUly3kX-14" style="edgeStyle=none;curved=1;rounded=0;orthogonalLoop=1;jettySize=auto;html=1;exitX=0.5;exitY=0;exitDx=0;exitDy=0;fontSize=12;startSize=8;endSize=8;" parent="1" edge="1">
          <mxGeometry relative="1" as="geometry">
            <mxPoint x="1192" y="-250" as="sourcePoint" />
            <mxPoint x="1192" y="-250" as="targetPoint" />
          </mxGeometry>
        </mxCell>
        <mxCell id="_6nD0CdhUFyhvwUly3kX-15" style="edgeStyle=none;curved=1;rounded=0;orthogonalLoop=1;jettySize=auto;html=1;exitX=0;exitY=0.5;exitDx=0;exitDy=0;entryX=1;entryY=0.5;entryDx=0;entryDy=0;fontSize=12;startSize=8;endSize=8;endArrow=none;endFill=0;" parent="1" target="_6nD0CdhUFyhvwUly3kX-103" edge="1">
          <mxGeometry relative="1" as="geometry">
            <mxPoint x="1072" y="-90" as="sourcePoint" />
            <mxPoint x="972" y="-88" as="targetPoint" />
          </mxGeometry>
        </mxCell>
        <mxCell id="_6nD0CdhUFyhvwUly3kX-16" style="edgeStyle=none;curved=1;rounded=0;orthogonalLoop=1;jettySize=auto;html=1;exitX=0.5;exitY=0;exitDx=0;exitDy=0;fontSize=12;startSize=8;endSize=8;" parent="1" edge="1">
          <mxGeometry relative="1" as="geometry">
            <mxPoint x="152" y="-490" as="sourcePoint" />
            <mxPoint x="152" y="-490" as="targetPoint" />
          </mxGeometry>
        </mxCell>
        <mxCell id="_6nD0CdhUFyhvwUly3kX-17" style="edgeStyle=none;curved=1;rounded=0;orthogonalLoop=1;jettySize=auto;html=1;exitX=0.75;exitY=0;exitDx=0;exitDy=0;fontSize=12;startSize=8;endSize=8;" parent="1" edge="1">
          <mxGeometry relative="1" as="geometry">
            <mxPoint x="567.0000000000005" y="-121" as="sourcePoint" />
            <mxPoint x="567.0000000000009" y="-121" as="targetPoint" />
          </mxGeometry>
        </mxCell>
        <mxCell id="_6nD0CdhUFyhvwUly3kX-18" style="edgeStyle=none;curved=1;rounded=0;orthogonalLoop=1;jettySize=auto;html=1;exitX=0.5;exitY=0;exitDx=0;exitDy=0;fontSize=12;startSize=8;endSize=8;" parent="1" edge="1">
          <mxGeometry relative="1" as="geometry">
            <mxPoint x="498" y="-121" as="sourcePoint" />
            <mxPoint x="498" y="-121" as="targetPoint" />
          </mxGeometry>
        </mxCell>
        <mxCell id="_6nD0CdhUFyhvwUly3kX-19" value="1" style="text;html=1;align=center;verticalAlign=middle;resizable=0;points=[];autosize=1;strokeColor=none;fillColor=none;fontSize=16;" parent="1" vertex="1">
          <mxGeometry x="1057" y="-256" width="30" height="30" as="geometry" />
        </mxCell>
        <mxCell id="_6nD0CdhUFyhvwUly3kX-20" style="edgeStyle=none;curved=1;rounded=0;orthogonalLoop=1;jettySize=auto;html=1;exitX=0.75;exitY=0;exitDx=0;exitDy=0;fontSize=12;startSize=8;endSize=8;" parent="1" edge="1">
          <mxGeometry relative="1" as="geometry">
            <mxPoint x="570.0000000000005" y="20" as="sourcePoint" />
            <mxPoint x="570.0000000000009" y="20" as="targetPoint" />
          </mxGeometry>
        </mxCell>
        <mxCell id="_6nD0CdhUFyhvwUly3kX-21" value="1" style="text;html=1;align=center;verticalAlign=middle;resizable=0;points=[];autosize=1;strokeColor=none;fillColor=none;fontSize=16;" parent="1" vertex="1">
          <mxGeometry x="614" y="-256" width="30" height="30" as="geometry" />
        </mxCell>
        <mxCell id="_6nD0CdhUFyhvwUly3kX-22" value="N" style="text;html=1;align=center;verticalAlign=middle;resizable=0;points=[];autosize=1;strokeColor=none;fillColor=none;fontSize=16;" parent="1" vertex="1">
          <mxGeometry x="703" y="-256" width="40" height="30" as="geometry" />
        </mxCell>
        <mxCell id="_6nD0CdhUFyhvwUly3kX-23" value="1" style="text;html=1;align=center;verticalAlign=middle;resizable=0;points=[];autosize=1;strokeColor=none;fillColor=none;fontSize=16;" parent="1" vertex="1">
          <mxGeometry x="1207" y="-192" width="30" height="30" as="geometry" />
        </mxCell>
        <mxCell id="_6nD0CdhUFyhvwUly3kX-24" value="N" style="text;html=1;align=center;verticalAlign=middle;resizable=0;points=[];autosize=1;strokeColor=none;fillColor=none;fontSize=16;" parent="1" vertex="1">
          <mxGeometry x="1207" y="-122" width="40" height="30" as="geometry" />
        </mxCell>
        <mxCell id="_6nD0CdhUFyhvwUly3kX-25" value="N" style="text;html=1;align=center;verticalAlign=middle;resizable=0;points=[];autosize=1;strokeColor=none;fillColor=none;fontSize=16;" parent="1" vertex="1">
          <mxGeometry x="92" y="-380" width="40" height="30" as="geometry" />
        </mxCell>
        <mxCell id="_6nD0CdhUFyhvwUly3kX-26" value="1" style="text;html=1;align=center;verticalAlign=middle;resizable=0;points=[];autosize=1;strokeColor=none;fillColor=none;fontSize=16;" parent="1" vertex="1">
          <mxGeometry x="97" y="-340" width="30" height="30" as="geometry" />
        </mxCell>
        <mxCell id="_6nD0CdhUFyhvwUly3kX-27" value="N" style="text;html=1;align=center;verticalAlign=middle;resizable=0;points=[];autosize=1;strokeColor=none;fillColor=none;fontSize=16;" parent="1" vertex="1">
          <mxGeometry x="1057" y="34" width="40" height="30" as="geometry" />
        </mxCell>
        <mxCell id="_6nD0CdhUFyhvwUly3kX-28" value="N" style="text;html=1;align=center;verticalAlign=middle;resizable=0;points=[];autosize=1;strokeColor=none;fillColor=none;fontSize=16;" parent="1" vertex="1">
          <mxGeometry x="962" y="-30" width="40" height="30" as="geometry" />
        </mxCell>
        <mxCell id="_6nD0CdhUFyhvwUly3kX-29" value="1" style="text;html=1;align=center;verticalAlign=middle;resizable=0;points=[];autosize=1;strokeColor=none;fillColor=none;fontSize=16;" parent="1" vertex="1">
          <mxGeometry x="722" y="-135" width="30" height="30" as="geometry" />
        </mxCell>
        <mxCell id="_6nD0CdhUFyhvwUly3kX-30" value="1" style="text;html=1;align=center;verticalAlign=middle;resizable=0;points=[];autosize=1;strokeColor=none;fillColor=none;fontSize=16;" parent="1" vertex="1">
          <mxGeometry x="644" y="-60" width="30" height="30" as="geometry" />
        </mxCell>
        <mxCell id="_6nD0CdhUFyhvwUly3kX-31" value="1" style="text;html=1;align=center;verticalAlign=middle;resizable=0;points=[];autosize=1;strokeColor=none;fillColor=none;fontSize=16;" parent="1" vertex="1">
          <mxGeometry x="722" y="30" width="30" height="30" as="geometry" />
        </mxCell>
        <mxCell id="_6nD0CdhUFyhvwUly3kX-32" value="N" style="text;html=1;align=center;verticalAlign=middle;resizable=0;points=[];autosize=1;strokeColor=none;fillColor=none;fontSize=16;" parent="1" vertex="1">
          <mxGeometry x="626" y="53" width="40" height="30" as="geometry" />
        </mxCell>
        <mxCell id="_6nD0CdhUFyhvwUly3kX-33" value="N" style="text;html=1;align=center;verticalAlign=middle;resizable=0;points=[];autosize=1;strokeColor=none;fillColor=none;fontSize=16;" parent="1" vertex="1">
          <mxGeometry x="618" y="300" width="40" height="30" as="geometry" />
        </mxCell>
        <mxCell id="_6nD0CdhUFyhvwUly3kX-34" value="1" style="text;html=1;align=center;verticalAlign=middle;resizable=0;points=[];autosize=1;strokeColor=none;fillColor=none;fontSize=16;" parent="1" vertex="1">
          <mxGeometry x="1052" y="-128" width="30" height="30" as="geometry" />
        </mxCell>
        <mxCell id="_6nD0CdhUFyhvwUly3kX-36" value="1" style="text;html=1;align=center;verticalAlign=middle;resizable=0;points=[];autosize=1;strokeColor=none;fillColor=none;fontSize=16;" parent="1" vertex="1">
          <mxGeometry x="347" y="-68" width="30" height="30" as="geometry" />
        </mxCell>
        <mxCell id="_6nD0CdhUFyhvwUly3kX-37" value="1" style="text;html=1;align=center;verticalAlign=middle;resizable=0;points=[];autosize=1;strokeColor=none;fillColor=none;fontSize=16;" parent="1" vertex="1">
          <mxGeometry x="272" y="-135" width="30" height="30" as="geometry" />
        </mxCell>
        <mxCell id="_6nD0CdhUFyhvwUly3kX-38" value="1" style="text;html=1;align=center;verticalAlign=middle;resizable=0;points=[];autosize=1;strokeColor=none;fillColor=none;fontSize=16;" parent="1" vertex="1">
          <mxGeometry x="347" y="60" width="30" height="30" as="geometry" />
        </mxCell>
        <mxCell id="_6nD0CdhUFyhvwUly3kX-39" value="N" style="text;html=1;align=center;verticalAlign=middle;resizable=0;points=[];autosize=1;strokeColor=none;fillColor=none;fontSize=16;" parent="1" vertex="1">
          <mxGeometry x="272" y="-14" width="40" height="30" as="geometry" />
        </mxCell>
        <mxCell id="_6nD0CdhUFyhvwUly3kX-40" value="Users" style="swimlane;fontStyle=0;childLayout=stackLayout;horizontal=1;startSize=26;fillColor=none;horizontalStack=0;resizeParent=1;resizeParentMax=0;resizeLast=0;collapsible=1;marginBottom=0;whiteSpace=wrap;html=1;fontSize=16;" parent="1" vertex="1">
          <mxGeometry x="398" y="-577" width="220" height="442" as="geometry" />
        </mxCell>
        <mxCell id="_6nD0CdhUFyhvwUly3kX-41" value="- id" style="text;strokeColor=none;fillColor=none;align=left;verticalAlign=top;spacingLeft=4;spacingRight=4;overflow=hidden;rotatable=0;points=[[0,0.5],[1,0.5]];portConstraint=eastwest;whiteSpace=wrap;html=1;fontSize=16;" parent="_6nD0CdhUFyhvwUly3kX-40" vertex="1">
          <mxGeometry y="26" width="220" height="26" as="geometry" />
        </mxCell>
        <mxCell id="_6nD0CdhUFyhvwUly3kX-42" value="- username: varchar" style="text;strokeColor=none;fillColor=none;align=left;verticalAlign=top;spacingLeft=4;spacingRight=4;overflow=hidden;rotatable=0;points=[[0,0.5],[1,0.5]];portConstraint=eastwest;whiteSpace=wrap;html=1;fontSize=16;" parent="_6nD0CdhUFyhvwUly3kX-40" vertex="1">
          <mxGeometry y="52" width="220" height="26" as="geometry" />
        </mxCell>
        <mxCell id="_6nD0CdhUFyhvwUly3kX-43" value="- login: varchar" style="text;strokeColor=none;fillColor=none;align=left;verticalAlign=top;spacingLeft=4;spacingRight=4;overflow=hidden;rotatable=0;points=[[0,0.5],[1,0.5]];portConstraint=eastwest;whiteSpace=wrap;html=1;fontSize=16;" parent="_6nD0CdhUFyhvwUly3kX-40" vertex="1">
          <mxGeometry y="78" width="220" height="26" as="geometry" />
        </mxCell>
        <mxCell id="_6nD0CdhUFyhvwUly3kX-44" value="- perfil: int" style="text;strokeColor=none;fillColor=none;align=left;verticalAlign=top;spacingLeft=4;spacingRight=4;overflow=hidden;rotatable=0;points=[[0,0.5],[1,0.5]];portConstraint=eastwest;whiteSpace=wrap;html=1;fontSize=16;" parent="_6nD0CdhUFyhvwUly3kX-40" vertex="1">
          <mxGeometry y="104" width="220" height="26" as="geometry" />
        </mxCell>
        <mxCell id="_6nD0CdhUFyhvwUly3kX-45" value="- email: varchar" style="text;strokeColor=none;fillColor=none;align=left;verticalAlign=top;spacingLeft=4;spacingRight=4;overflow=hidden;rotatable=0;points=[[0,0.5],[1,0.5]];portConstraint=eastwest;whiteSpace=wrap;html=1;fontSize=16;" parent="_6nD0CdhUFyhvwUly3kX-40" vertex="1">
          <mxGeometry y="130" width="220" height="26" as="geometry" />
        </mxCell>
        <mxCell id="_6nD0CdhUFyhvwUly3kX-46" value="- pass: varchar" style="text;strokeColor=none;fillColor=none;align=left;verticalAlign=top;spacingLeft=4;spacingRight=4;overflow=hidden;rotatable=0;points=[[0,0.5],[1,0.5]];portConstraint=eastwest;whiteSpace=wrap;html=1;fontSize=16;" parent="_6nD0CdhUFyhvwUly3kX-40" vertex="1">
          <mxGeometry y="156" width="220" height="26" as="geometry" />
        </mxCell>
        <mxCell id="_6nD0CdhUFyhvwUly3kX-47" value="- image: varchar" style="text;strokeColor=none;fillColor=none;align=left;verticalAlign=top;spacingLeft=4;spacingRight=4;overflow=hidden;rotatable=0;points=[[0,0.5],[1,0.5]];portConstraint=eastwest;whiteSpace=wrap;html=1;fontSize=16;" parent="_6nD0CdhUFyhvwUly3kX-40" vertex="1">
          <mxGeometry y="182" width="220" height="26" as="geometry" />
        </mxCell>
        <mxCell id="_6nD0CdhUFyhvwUly3kX-48" value="- active: int" style="text;strokeColor=none;fillColor=none;align=left;verticalAlign=top;spacingLeft=4;spacingRight=4;overflow=hidden;rotatable=0;points=[[0,0.5],[1,0.5]];portConstraint=eastwest;whiteSpace=wrap;html=1;fontSize=16;" parent="_6nD0CdhUFyhvwUly3kX-40" vertex="1">
          <mxGeometry y="208" width="220" height="26" as="geometry" />
        </mxCell>
        <mxCell id="_6nD0CdhUFyhvwUly3kX-49" value="- created_at: datetime" style="text;strokeColor=none;fillColor=none;align=left;verticalAlign=top;spacingLeft=4;spacingRight=4;overflow=hidden;rotatable=0;points=[[0,0.5],[1,0.5]];portConstraint=eastwest;whiteSpace=wrap;html=1;fontSize=16;" parent="_6nD0CdhUFyhvwUly3kX-40" vertex="1">
          <mxGeometry y="234" width="220" height="26" as="geometry" />
        </mxCell>
        <mxCell id="_6nD0CdhUFyhvwUly3kX-50" value="- update_at: datetime" style="text;strokeColor=none;fillColor=none;align=left;verticalAlign=top;spacingLeft=4;spacingRight=4;overflow=hidden;rotatable=0;points=[[0,0.5],[1,0.5]];portConstraint=eastwest;whiteSpace=wrap;html=1;fontSize=16;" parent="_6nD0CdhUFyhvwUly3kX-40" vertex="1">
          <mxGeometry y="260" width="220" height="26" as="geometry" />
        </mxCell>
        <mxCell id="_6nD0CdhUFyhvwUly3kX-51" value="- deleted_at: datetime" style="text;strokeColor=none;fillColor=none;align=left;verticalAlign=top;spacingLeft=4;spacingRight=4;overflow=hidden;rotatable=0;points=[[0,0.5],[1,0.5]];portConstraint=eastwest;whiteSpace=wrap;html=1;fontSize=16;" parent="_6nD0CdhUFyhvwUly3kX-40" vertex="1">
          <mxGeometry y="286" width="220" height="26" as="geometry" />
        </mxCell>
        <mxCell id="_6nD0CdhUFyhvwUly3kX-52" value="- level: int" style="text;strokeColor=none;fillColor=none;align=left;verticalAlign=top;spacingLeft=4;spacingRight=4;overflow=hidden;rotatable=0;points=[[0,0.5],[1,0.5]];portConstraint=eastwest;whiteSpace=wrap;html=1;fontSize=16;" parent="_6nD0CdhUFyhvwUly3kX-40" vertex="1">
          <mxGeometry y="312" width="220" height="26" as="geometry" />
        </mxCell>
        <mxCell id="_6nD0CdhUFyhvwUly3kX-53" value="- renember_token: varchar" style="text;strokeColor=none;fillColor=none;align=left;verticalAlign=top;spacingLeft=4;spacingRight=4;overflow=hidden;rotatable=0;points=[[0,0.5],[1,0.5]];portConstraint=eastwest;whiteSpace=wrap;html=1;fontSize=16;" parent="_6nD0CdhUFyhvwUly3kX-40" vertex="1">
          <mxGeometry y="338" width="220" height="26" as="geometry" />
        </mxCell>
        <mxCell id="_6nD0CdhUFyhvwUly3kX-54" value="- email_verified_at: datetime" style="text;strokeColor=none;fillColor=none;align=left;verticalAlign=top;spacingLeft=4;spacingRight=4;overflow=hidden;rotatable=0;points=[[0,0.5],[1,0.5]];portConstraint=eastwest;whiteSpace=wrap;html=1;fontSize=16;" parent="_6nD0CdhUFyhvwUly3kX-40" vertex="1">
          <mxGeometry y="364" width="220" height="26" as="geometry" />
        </mxCell>
        <mxCell id="_6nD0CdhUFyhvwUly3kX-55" value="- acess_external: varchar" style="text;strokeColor=none;fillColor=none;align=left;verticalAlign=top;spacingLeft=4;spacingRight=4;overflow=hidden;rotatable=0;points=[[0,0.5],[1,0.5]];portConstraint=eastwest;whiteSpace=wrap;html=1;fontSize=16;" parent="_6nD0CdhUFyhvwUly3kX-40" vertex="1">
          <mxGeometry y="390" width="220" height="26" as="geometry" />
        </mxCell>
        <mxCell id="_6nD0CdhUFyhvwUly3kX-56" value="- graph_statistic: varchar" style="text;strokeColor=none;fillColor=none;align=left;verticalAlign=top;spacingLeft=4;spacingRight=4;overflow=hidden;rotatable=0;points=[[0,0.5],[1,0.5]];portConstraint=eastwest;whiteSpace=wrap;html=1;fontSize=16;" parent="_6nD0CdhUFyhvwUly3kX-40" vertex="1">
          <mxGeometry y="416" width="220" height="26" as="geometry" />
        </mxCell>
        <mxCell id="_6nD0CdhUFyhvwUly3kX-57" value="Group_name" style="swimlane;fontStyle=0;childLayout=stackLayout;horizontal=1;startSize=26;fillColor=none;horizontalStack=0;resizeParent=1;resizeParentMax=0;resizeLast=0;collapsible=1;marginBottom=0;whiteSpace=wrap;html=1;fontSize=16;" parent="1" vertex="1">
          <mxGeometry x="742" y="-256" width="240" height="78" as="geometry" />
        </mxCell>
        <mxCell id="_6nD0CdhUFyhvwUly3kX-58" value="- project_id: int" style="text;strokeColor=none;fillColor=none;align=left;verticalAlign=top;spacingLeft=4;spacingRight=4;overflow=hidden;rotatable=0;points=[[0,0.5],[1,0.5]];portConstraint=eastwest;whiteSpace=wrap;html=1;fontSize=16;" parent="_6nD0CdhUFyhvwUly3kX-57" vertex="1">
          <mxGeometry y="26" width="240" height="26" as="geometry" />
        </mxCell>
        <mxCell id="_6nD0CdhUFyhvwUly3kX-59" value="- user_id: int" style="text;strokeColor=none;fillColor=none;align=left;verticalAlign=top;spacingLeft=4;spacingRight=4;overflow=hidden;rotatable=0;points=[[0,0.5],[1,0.5]];portConstraint=eastwest;whiteSpace=wrap;html=1;fontSize=16;" parent="_6nD0CdhUFyhvwUly3kX-57" vertex="1">
          <mxGeometry y="52" width="240" height="26" as="geometry" />
        </mxCell>
        <mxCell id="_6nD0CdhUFyhvwUly3kX-60" value="Group" style="swimlane;fontStyle=0;childLayout=stackLayout;horizontal=1;startSize=26;fillColor=none;horizontalStack=0;resizeParent=1;resizeParentMax=0;resizeLast=0;collapsible=1;marginBottom=0;whiteSpace=wrap;html=1;fontSize=16;" parent="1" vertex="1">
          <mxGeometry x="1097" y="-274" width="240" height="78" as="geometry" />
        </mxCell>
        <mxCell id="_6nD0CdhUFyhvwUly3kX-61" value="- id: int" style="text;strokeColor=none;fillColor=none;align=left;verticalAlign=top;spacingLeft=4;spacingRight=4;overflow=hidden;rotatable=0;points=[[0,0.5],[1,0.5]];portConstraint=eastwest;whiteSpace=wrap;html=1;fontSize=16;" parent="_6nD0CdhUFyhvwUly3kX-60" vertex="1">
          <mxGeometry y="26" width="240" height="26" as="geometry" />
        </mxCell>
        <mxCell id="_6nD0CdhUFyhvwUly3kX-62" value="- group_name: varchar" style="text;strokeColor=none;fillColor=none;align=left;verticalAlign=top;spacingLeft=4;spacingRight=4;overflow=hidden;rotatable=0;points=[[0,0.5],[1,0.5]];portConstraint=eastwest;whiteSpace=wrap;html=1;fontSize=16;" parent="_6nD0CdhUFyhvwUly3kX-60" vertex="1">
          <mxGeometry y="52" width="240" height="26" as="geometry" />
        </mxCell>
        <mxCell id="_6nD0CdhUFyhvwUly3kX-63" value="Task" style="swimlane;fontStyle=0;childLayout=stackLayout;horizontal=1;startSize=26;fillColor=none;horizontalStack=0;resizeParent=1;resizeParentMax=0;resizeLast=0;collapsible=1;marginBottom=0;whiteSpace=wrap;html=1;fontSize=16;" parent="1" vertex="1">
          <mxGeometry x="10" y="-296" width="262" height="468" as="geometry">
            <mxRectangle x="351" y="266" width="90" height="30" as="alternateBounds" />
          </mxGeometry>
        </mxCell>
        <mxCell id="_6nD0CdhUFyhvwUly3kX-64" value="- id: int" style="text;strokeColor=none;fillColor=none;align=left;verticalAlign=top;spacingLeft=4;spacingRight=4;overflow=hidden;rotatable=0;points=[[0,0.5],[1,0.5]];portConstraint=eastwest;whiteSpace=wrap;html=1;fontSize=16;" parent="_6nD0CdhUFyhvwUly3kX-63" vertex="1">
          <mxGeometry y="26" width="262" height="26" as="geometry" />
        </mxCell>
        <mxCell id="_6nD0CdhUFyhvwUly3kX-65" value="- title: varchar" style="text;strokeColor=none;fillColor=none;align=left;verticalAlign=top;spacingLeft=4;spacingRight=4;overflow=hidden;rotatable=0;points=[[0,0.5],[1,0.5]];portConstraint=eastwest;whiteSpace=wrap;html=1;fontSize=16;" parent="_6nD0CdhUFyhvwUly3kX-63" vertex="1">
          <mxGeometry y="52" width="262" height="26" as="geometry" />
        </mxCell>
        <mxCell id="_6nD0CdhUFyhvwUly3kX-66" value="- creation_date: datetime" style="text;strokeColor=none;fillColor=none;align=left;verticalAlign=top;spacingLeft=4;spacingRight=4;overflow=hidden;rotatable=0;points=[[0,0.5],[1,0.5]];portConstraint=eastwest;whiteSpace=wrap;html=1;fontSize=16;" parent="_6nD0CdhUFyhvwUly3kX-63" vertex="1">
          <mxGeometry y="78" width="262" height="26" as="geometry" />
        </mxCell>
        <mxCell id="_6nD0CdhUFyhvwUly3kX-67" value="- module_id: int" style="text;strokeColor=none;fillColor=none;align=left;verticalAlign=top;spacingLeft=4;spacingRight=4;overflow=hidden;rotatable=0;points=[[0,0.5],[1,0.5]];portConstraint=eastwest;whiteSpace=wrap;html=1;fontSize=16;" parent="_6nD0CdhUFyhvwUly3kX-63" vertex="1">
          <mxGeometry y="104" width="262" height="26" as="geometry" />
        </mxCell>
        <mxCell id="_6nD0CdhUFyhvwUly3kX-68" value="- status_id: int" style="text;strokeColor=none;fillColor=none;align=left;verticalAlign=top;spacingLeft=4;spacingRight=4;overflow=hidden;rotatable=0;points=[[0,0.5],[1,0.5]];portConstraint=eastwest;whiteSpace=wrap;html=1;fontSize=16;" parent="_6nD0CdhUFyhvwUly3kX-63" vertex="1">
          <mxGeometry y="130" width="262" height="26" as="geometry" />
        </mxCell>
        <mxCell id="_6nD0CdhUFyhvwUly3kX-69" value="-&amp;nbsp;time_to_conclude: date" style="text;strokeColor=none;fillColor=none;align=left;verticalAlign=top;spacingLeft=4;spacingRight=4;overflow=hidden;rotatable=0;points=[[0,0.5],[1,0.5]];portConstraint=eastwest;whiteSpace=wrap;html=1;fontSize=16;" parent="_6nD0CdhUFyhvwUly3kX-63" vertex="1">
          <mxGeometry y="156" width="262" height="26" as="geometry" />
        </mxCell>
        <mxCell id="_6nD0CdhUFyhvwUly3kX-70" value="- prioridade: int" style="text;strokeColor=none;fillColor=none;align=left;verticalAlign=top;spacingLeft=4;spacingRight=4;overflow=hidden;rotatable=0;points=[[0,0.5],[1,0.5]];portConstraint=eastwest;whiteSpace=wrap;html=1;fontSize=16;" parent="_6nD0CdhUFyhvwUly3kX-63" vertex="1">
          <mxGeometry y="182" width="262" height="26" as="geometry" />
        </mxCell>
        <mxCell id="_6nD0CdhUFyhvwUly3kX-71" value="- urgent: int" style="text;strokeColor=none;fillColor=none;align=left;verticalAlign=top;spacingLeft=4;spacingRight=4;overflow=hidden;rotatable=0;points=[[0,0.5],[1,0.5]];portConstraint=eastwest;whiteSpace=wrap;html=1;fontSize=16;" parent="_6nD0CdhUFyhvwUly3kX-63" vertex="1">
          <mxGeometry y="208" width="262" height="26" as="geometry" />
        </mxCell>
        <mxCell id="_6nD0CdhUFyhvwUly3kX-72" value="- description_task: text&lt;br&gt;" style="text;strokeColor=none;fillColor=none;align=left;verticalAlign=top;spacingLeft=4;spacingRight=4;overflow=hidden;rotatable=0;points=[[0,0.5],[1,0.5]];portConstraint=eastwest;whiteSpace=wrap;html=1;fontSize=16;" parent="_6nD0CdhUFyhvwUly3kX-63" vertex="1">
          <mxGeometry y="234" width="262" height="26" as="geometry" />
        </mxCell>
        <mxCell id="_6nD0CdhUFyhvwUly3kX-73" value="- category_task: int" style="text;strokeColor=none;fillColor=none;align=left;verticalAlign=top;spacingLeft=4;spacingRight=4;overflow=hidden;rotatable=0;points=[[0,0.5],[1,0.5]];portConstraint=eastwest;whiteSpace=wrap;html=1;fontSize=16;" parent="_6nD0CdhUFyhvwUly3kX-63" vertex="1">
          <mxGeometry y="260" width="262" height="26" as="geometry" />
        </mxCell>
        <mxCell id="_6nD0CdhUFyhvwUly3kX-74" value="- tags_id: int" style="text;strokeColor=none;fillColor=none;align=left;verticalAlign=top;spacingLeft=4;spacingRight=4;overflow=hidden;rotatable=0;points=[[0,0.5],[1,0.5]];portConstraint=eastwest;whiteSpace=wrap;html=1;fontSize=16;" parent="_6nD0CdhUFyhvwUly3kX-63" vertex="1">
          <mxGeometry y="286" width="262" height="26" as="geometry" />
        </mxCell>
        <mxCell id="_6nD0CdhUFyhvwUly3kX-75" value="-&amp;nbsp;complexity: int" style="text;strokeColor=none;fillColor=none;align=left;verticalAlign=top;spacingLeft=4;spacingRight=4;overflow=hidden;rotatable=0;points=[[0,0.5],[1,0.5]];portConstraint=eastwest;whiteSpace=wrap;html=1;fontSize=16;" parent="_6nD0CdhUFyhvwUly3kX-63" vertex="1">
          <mxGeometry y="312" width="262" height="26" as="geometry" />
        </mxCell>
        <mxCell id="_6nD0CdhUFyhvwUly3kX-76" value="- updated_at: datetime" style="text;strokeColor=none;fillColor=none;align=left;verticalAlign=top;spacingLeft=4;spacingRight=4;overflow=hidden;rotatable=0;points=[[0,0.5],[1,0.5]];portConstraint=eastwest;whiteSpace=wrap;html=1;fontSize=16;" parent="_6nD0CdhUFyhvwUly3kX-63" vertex="1">
          <mxGeometry y="338" width="262" height="26" as="geometry" />
        </mxCell>
        <mxCell id="_6nD0CdhUFyhvwUly3kX-77" value="- deleted_at: datetime" style="text;strokeColor=none;fillColor=none;align=left;verticalAlign=top;spacingLeft=4;spacingRight=4;overflow=hidden;rotatable=0;points=[[0,0.5],[1,0.5]];portConstraint=eastwest;whiteSpace=wrap;html=1;fontSize=16;" parent="_6nD0CdhUFyhvwUly3kX-63" vertex="1">
          <mxGeometry y="364" width="262" height="26" as="geometry" />
        </mxCell>
        <mxCell id="_6nD0CdhUFyhvwUly3kX-78" value="- date_concluded: date" style="text;strokeColor=none;fillColor=none;align=left;verticalAlign=top;spacingLeft=4;spacingRight=4;overflow=hidden;rotatable=0;points=[[0,0.5],[1,0.5]];portConstraint=eastwest;whiteSpace=wrap;html=1;fontSize=16;" parent="_6nD0CdhUFyhvwUly3kX-63" vertex="1">
          <mxGeometry y="390" width="262" height="26" as="geometry" />
        </mxCell>
        <mxCell id="_6nD0CdhUFyhvwUly3kX-79" value="- reporteBug_id: int" style="text;strokeColor=none;fillColor=none;align=left;verticalAlign=top;spacingLeft=4;spacingRight=4;overflow=hidden;rotatable=0;points=[[0,0.5],[1,0.5]];portConstraint=eastwest;whiteSpace=wrap;html=1;fontSize=16;" parent="_6nD0CdhUFyhvwUly3kX-63" vertex="1">
          <mxGeometry y="416" width="262" height="26" as="geometry" />
        </mxCell>
        <mxCell id="_6nD0CdhUFyhvwUly3kX-80" value="- sugestion_id: int" style="text;strokeColor=none;fillColor=none;align=left;verticalAlign=top;spacingLeft=4;spacingRight=4;overflow=hidden;rotatable=0;points=[[0,0.5],[1,0.5]];portConstraint=eastwest;whiteSpace=wrap;html=1;fontSize=16;" parent="_6nD0CdhUFyhvwUly3kX-63" vertex="1">
          <mxGeometry y="442" width="262" height="26" as="geometry" />
        </mxCell>
        <mxCell id="_6nD0CdhUFyhvwUly3kX-81" value="Module" style="swimlane;fontStyle=0;childLayout=stackLayout;horizontal=1;startSize=26;fillColor=none;horizontalStack=0;resizeParent=1;resizeParentMax=0;resizeLast=0;collapsible=1;marginBottom=0;whiteSpace=wrap;html=1;fontSize=16;" parent="1" vertex="1">
          <mxGeometry x="377" y="90" width="262" height="156" as="geometry">
            <mxRectangle x="351" y="266" width="90" height="30" as="alternateBounds" />
          </mxGeometry>
        </mxCell>
        <mxCell id="_6nD0CdhUFyhvwUly3kX-82" value="- id: int" style="text;strokeColor=none;fillColor=none;align=left;verticalAlign=top;spacingLeft=4;spacingRight=4;overflow=hidden;rotatable=0;points=[[0,0.5],[1,0.5]];portConstraint=eastwest;whiteSpace=wrap;html=1;fontSize=16;" parent="_6nD0CdhUFyhvwUly3kX-81" vertex="1">
          <mxGeometry y="26" width="262" height="26" as="geometry" />
        </mxCell>
        <mxCell id="_6nD0CdhUFyhvwUly3kX-83" value="- name_module: varchar" style="text;strokeColor=none;fillColor=none;align=left;verticalAlign=top;spacingLeft=4;spacingRight=4;overflow=hidden;rotatable=0;points=[[0,0.5],[1,0.5]];portConstraint=eastwest;whiteSpace=wrap;html=1;fontSize=16;" parent="_6nD0CdhUFyhvwUly3kX-81" vertex="1">
          <mxGeometry y="52" width="262" height="26" as="geometry" />
        </mxCell>
        <mxCell id="_6nD0CdhUFyhvwUly3kX-84" value="- project_id: int" style="text;strokeColor=none;fillColor=none;align=left;verticalAlign=top;spacingLeft=4;spacingRight=4;overflow=hidden;rotatable=0;points=[[0,0.5],[1,0.5]];portConstraint=eastwest;whiteSpace=wrap;html=1;fontSize=16;" parent="_6nD0CdhUFyhvwUly3kX-81" vertex="1">
          <mxGeometry y="78" width="262" height="26" as="geometry" />
        </mxCell>
        <mxCell id="_6nD0CdhUFyhvwUly3kX-85" value="- creation_date: datetime" style="text;strokeColor=none;fillColor=none;align=left;verticalAlign=top;spacingLeft=4;spacingRight=4;overflow=hidden;rotatable=0;points=[[0,0.5],[1,0.5]];portConstraint=eastwest;whiteSpace=wrap;html=1;fontSize=16;" parent="_6nD0CdhUFyhvwUly3kX-81" vertex="1">
          <mxGeometry y="104" width="262" height="26" as="geometry" />
        </mxCell>
        <mxCell id="_6nD0CdhUFyhvwUly3kX-86" value="- start_date_project: date" style="text;strokeColor=none;fillColor=none;align=left;verticalAlign=top;spacingLeft=4;spacingRight=4;overflow=hidden;rotatable=0;points=[[0,0.5],[1,0.5]];portConstraint=eastwest;whiteSpace=wrap;html=1;fontSize=16;" parent="_6nD0CdhUFyhvwUly3kX-81" vertex="1">
          <mxGeometry y="130" width="262" height="26" as="geometry" />
        </mxCell>
        <mxCell id="_6nD0CdhUFyhvwUly3kX-87" value="Status" style="swimlane;fontStyle=0;childLayout=stackLayout;horizontal=1;startSize=26;fillColor=none;horizontalStack=0;resizeParent=1;resizeParentMax=0;resizeLast=0;collapsible=1;marginBottom=0;whiteSpace=wrap;html=1;fontSize=16;" parent="1" vertex="1">
          <mxGeometry x="382" y="-51" width="262" height="104" as="geometry">
            <mxRectangle x="351" y="266" width="90" height="30" as="alternateBounds" />
          </mxGeometry>
        </mxCell>
        <mxCell id="_6nD0CdhUFyhvwUly3kX-88" value="- id: int" style="text;strokeColor=none;fillColor=none;align=left;verticalAlign=top;spacingLeft=4;spacingRight=4;overflow=hidden;rotatable=0;points=[[0,0.5],[1,0.5]];portConstraint=eastwest;whiteSpace=wrap;html=1;fontSize=16;" parent="_6nD0CdhUFyhvwUly3kX-87" vertex="1">
          <mxGeometry y="26" width="262" height="26" as="geometry" />
        </mxCell>
        <mxCell id="_6nD0CdhUFyhvwUly3kX-89" value="- name_status: varchar" style="text;strokeColor=none;fillColor=none;align=left;verticalAlign=top;spacingLeft=4;spacingRight=4;overflow=hidden;rotatable=0;points=[[0,0.5],[1,0.5]];portConstraint=eastwest;whiteSpace=wrap;html=1;fontSize=16;" parent="_6nD0CdhUFyhvwUly3kX-87" vertex="1">
          <mxGeometry y="52" width="262" height="26" as="geometry" />
        </mxCell>
        <mxCell id="_6nD0CdhUFyhvwUly3kX-90" value="- status_color: varchar" style="text;strokeColor=none;fillColor=none;align=left;verticalAlign=top;spacingLeft=4;spacingRight=4;overflow=hidden;rotatable=0;points=[[0,0.5],[1,0.5]];portConstraint=eastwest;whiteSpace=wrap;html=1;fontSize=16;" parent="_6nD0CdhUFyhvwUly3kX-87" vertex="1">
          <mxGeometry y="78" width="262" height="26" as="geometry" />
        </mxCell>
        <mxCell id="_6nD0CdhUFyhvwUly3kX-91" style="edgeStyle=none;curved=1;rounded=0;orthogonalLoop=1;jettySize=auto;html=1;exitX=0.5;exitY=0;exitDx=0;exitDy=0;entryX=0.498;entryY=1.045;entryDx=0;entryDy=0;entryPerimeter=0;fontSize=12;startSize=8;endSize=8;endArrow=none;endFill=0;" parent="1" source="_6nD0CdhUFyhvwUly3kX-92" target="_6nD0CdhUFyhvwUly3kX-80" edge="1">
          <mxGeometry relative="1" as="geometry" />
        </mxCell>
        <mxCell id="_6nD0CdhUFyhvwUly3kX-92" value="Files" style="swimlane;fontStyle=0;childLayout=stackLayout;horizontal=1;startSize=26;fillColor=none;horizontalStack=0;resizeParent=1;resizeParentMax=0;resizeLast=0;collapsible=1;marginBottom=0;whiteSpace=wrap;html=1;fontSize=16;" parent="1" vertex="1">
          <mxGeometry x="21" y="248" width="240" height="208" as="geometry" />
        </mxCell>
        <mxCell id="_6nD0CdhUFyhvwUly3kX-93" value="- id" style="text;strokeColor=none;fillColor=none;align=left;verticalAlign=top;spacingLeft=4;spacingRight=4;overflow=hidden;rotatable=0;points=[[0,0.5],[1,0.5]];portConstraint=eastwest;whiteSpace=wrap;html=1;fontSize=16;" parent="_6nD0CdhUFyhvwUly3kX-92" vertex="1">
          <mxGeometry y="26" width="240" height="26" as="geometry" />
        </mxCell>
        <mxCell id="_6nD0CdhUFyhvwUly3kX-94" value="- name: varchar" style="text;strokeColor=none;fillColor=none;align=left;verticalAlign=top;spacingLeft=4;spacingRight=4;overflow=hidden;rotatable=0;points=[[0,0.5],[1,0.5]];portConstraint=eastwest;whiteSpace=wrap;html=1;fontSize=16;" parent="_6nD0CdhUFyhvwUly3kX-92" vertex="1">
          <mxGeometry y="52" width="240" height="26" as="geometry" />
        </mxCell>
        <mxCell id="_6nD0CdhUFyhvwUly3kX-95" value="- format: varchar&amp;nbsp;" style="text;strokeColor=none;fillColor=none;align=left;verticalAlign=top;spacingLeft=4;spacingRight=4;overflow=hidden;rotatable=0;points=[[0,0.5],[1,0.5]];portConstraint=eastwest;whiteSpace=wrap;html=1;fontSize=16;" parent="_6nD0CdhUFyhvwUly3kX-92" vertex="1">
          <mxGeometry y="78" width="240" height="26" as="geometry" />
        </mxCell>
        <mxCell id="_6nD0CdhUFyhvwUly3kX-96" value="- path: varchar" style="text;strokeColor=none;fillColor=none;align=left;verticalAlign=top;spacingLeft=4;spacingRight=4;overflow=hidden;rotatable=0;points=[[0,0.5],[1,0.5]];portConstraint=eastwest;whiteSpace=wrap;html=1;fontSize=16;" parent="_6nD0CdhUFyhvwUly3kX-92" vertex="1">
          <mxGeometry y="104" width="240" height="26" as="geometry" />
        </mxCell>
        <mxCell id="_6nD0CdhUFyhvwUly3kX-97" value="- created_at: datetime" style="text;strokeColor=none;fillColor=none;align=left;verticalAlign=top;spacingLeft=4;spacingRight=4;overflow=hidden;rotatable=0;points=[[0,0.5],[1,0.5]];portConstraint=eastwest;whiteSpace=wrap;html=1;fontSize=16;" parent="_6nD0CdhUFyhvwUly3kX-92" vertex="1">
          <mxGeometry y="130" width="240" height="26" as="geometry" />
        </mxCell>
        <mxCell id="_6nD0CdhUFyhvwUly3kX-98" value="- users_id: int" style="text;strokeColor=none;fillColor=none;align=left;verticalAlign=top;spacingLeft=4;spacingRight=4;overflow=hidden;rotatable=0;points=[[0,0.5],[1,0.5]];portConstraint=eastwest;whiteSpace=wrap;html=1;fontSize=16;" parent="_6nD0CdhUFyhvwUly3kX-92" vertex="1">
          <mxGeometry y="156" width="240" height="26" as="geometry" />
        </mxCell>
        <mxCell id="_6nD0CdhUFyhvwUly3kX-99" value="- task_id: int" style="text;strokeColor=none;fillColor=none;align=left;verticalAlign=top;spacingLeft=4;spacingRight=4;overflow=hidden;rotatable=0;points=[[0,0.5],[1,0.5]];portConstraint=eastwest;whiteSpace=wrap;html=1;fontSize=16;" parent="_6nD0CdhUFyhvwUly3kX-92" vertex="1">
          <mxGeometry y="182" width="240" height="26" as="geometry" />
        </mxCell>
        <mxCell id="_6nD0CdhUFyhvwUly3kX-100" value="Project" style="swimlane;fontStyle=0;childLayout=stackLayout;horizontal=1;startSize=26;fillColor=none;horizontalStack=0;resizeParent=1;resizeParentMax=0;resizeLast=0;collapsible=1;marginBottom=0;whiteSpace=wrap;html=1;fontSize=16;" parent="1" vertex="1">
          <mxGeometry x="752" y="-140" width="210" height="488" as="geometry">
            <mxRectangle x="351" y="266" width="90" height="30" as="alternateBounds" />
          </mxGeometry>
        </mxCell>
        <mxCell id="_6nD0CdhUFyhvwUly3kX-101" value="- id: int" style="text;strokeColor=none;fillColor=none;align=left;verticalAlign=top;spacingLeft=4;spacingRight=4;overflow=hidden;rotatable=0;points=[[0,0.5],[1,0.5]];portConstraint=eastwest;whiteSpace=wrap;html=1;fontSize=16;" parent="_6nD0CdhUFyhvwUly3kX-100" vertex="1">
          <mxGeometry y="26" width="210" height="22" as="geometry" />
        </mxCell>
        <mxCell id="_6nD0CdhUFyhvwUly3kX-102" value="- name_project: varchar" style="text;strokeColor=none;fillColor=none;align=left;verticalAlign=top;spacingLeft=4;spacingRight=4;overflow=hidden;rotatable=0;points=[[0,0.5],[1,0.5]];portConstraint=eastwest;whiteSpace=wrap;html=1;fontSize=16;" parent="_6nD0CdhUFyhvwUly3kX-100" vertex="1">
          <mxGeometry y="48" width="210" height="26" as="geometry" />
        </mxCell>
        <mxCell id="_6nD0CdhUFyhvwUly3kX-103" value="- description_project: text" style="text;strokeColor=none;fillColor=none;align=left;verticalAlign=top;spacingLeft=4;spacingRight=4;overflow=hidden;rotatable=0;points=[[0,0.5],[1,0.5]];portConstraint=eastwest;whiteSpace=wrap;html=1;fontSize=16;" parent="_6nD0CdhUFyhvwUly3kX-100" vertex="1">
          <mxGeometry y="74" width="210" height="26" as="geometry" />
        </mxCell>
        <mxCell id="_6nD0CdhUFyhvwUly3kX-104" value="- status_id: int" style="text;strokeColor=none;fillColor=none;align=left;verticalAlign=top;spacingLeft=4;spacingRight=4;overflow=hidden;rotatable=0;points=[[0,0.5],[1,0.5]];portConstraint=eastwest;whiteSpace=wrap;html=1;fontSize=16;" parent="_6nD0CdhUFyhvwUly3kX-100" vertex="1">
          <mxGeometry y="100" width="210" height="26" as="geometry" />
        </mxCell>
        <mxCell id="_6nD0CdhUFyhvwUly3kX-105" value="- start_project: date" style="text;strokeColor=none;fillColor=none;align=left;verticalAlign=top;spacingLeft=4;spacingRight=4;overflow=hidden;rotatable=0;points=[[0,0.5],[1,0.5]];portConstraint=eastwest;whiteSpace=wrap;html=1;fontSize=16;" parent="_6nD0CdhUFyhvwUly3kX-100" vertex="1">
          <mxGeometry y="126" width="210" height="26" as="geometry" />
        </mxCell>
        <mxCell id="_6nD0CdhUFyhvwUly3kX-106" value="- archived: tinyint" style="text;strokeColor=none;fillColor=none;align=left;verticalAlign=top;spacingLeft=4;spacingRight=4;overflow=hidden;rotatable=0;points=[[0,0.5],[1,0.5]];portConstraint=eastwest;whiteSpace=wrap;html=1;fontSize=16;" parent="_6nD0CdhUFyhvwUly3kX-100" vertex="1">
          <mxGeometry y="152" width="210" height="26" as="geometry" />
        </mxCell>
        <mxCell id="_6nD0CdhUFyhvwUly3kX-107" value="- position: int" style="text;strokeColor=none;fillColor=none;align=left;verticalAlign=top;spacingLeft=4;spacingRight=4;overflow=hidden;rotatable=0;points=[[0,0.5],[1,0.5]];portConstraint=eastwest;whiteSpace=wrap;html=1;fontSize=16;" parent="_6nD0CdhUFyhvwUly3kX-100" vertex="1">
          <mxGeometry y="178" width="210" height="26" as="geometry" />
        </mxCell>
        <mxCell id="_6nD0CdhUFyhvwUly3kX-108" value="- situation: text" style="text;strokeColor=none;fillColor=none;align=left;verticalAlign=top;spacingLeft=4;spacingRight=4;overflow=hidden;rotatable=0;points=[[0,0.5],[1,0.5]];portConstraint=eastwest;whiteSpace=wrap;html=1;fontSize=16;" parent="_6nD0CdhUFyhvwUly3kX-100" vertex="1">
          <mxGeometry y="204" width="210" height="26" as="geometry" />
        </mxCell>
        <mxCell id="_6nD0CdhUFyhvwUly3kX-109" value="- Calendar: text" style="text;strokeColor=none;fillColor=none;align=left;verticalAlign=top;spacingLeft=4;spacingRight=4;overflow=hidden;rotatable=0;points=[[0,0.5],[1,0.5]];portConstraint=eastwest;whiteSpace=wrap;html=1;fontSize=16;" parent="_6nD0CdhUFyhvwUly3kX-100" vertex="1">
          <mxGeometry y="230" width="210" height="26" as="geometry" />
        </mxCell>
        <mxCell id="_6nD0CdhUFyhvwUly3kX-110" value="- image: varchar" style="text;strokeColor=none;fillColor=none;align=left;verticalAlign=top;spacingLeft=4;spacingRight=4;overflow=hidden;rotatable=0;points=[[0,0.5],[1,0.5]];portConstraint=eastwest;whiteSpace=wrap;html=1;fontSize=16;" parent="_6nD0CdhUFyhvwUly3kX-100" vertex="1">
          <mxGeometry y="256" width="210" height="26" as="geometry" />
        </mxCell>
        <mxCell id="_6nD0CdhUFyhvwUly3kX-111" value="- start_development: date" style="text;strokeColor=none;fillColor=none;align=left;verticalAlign=top;spacingLeft=4;spacingRight=4;overflow=hidden;rotatable=0;points=[[0,0.5],[1,0.5]];portConstraint=eastwest;whiteSpace=wrap;html=1;fontSize=16;" parent="_6nD0CdhUFyhvwUly3kX-100" vertex="1">
          <mxGeometry y="282" width="210" height="26" as="geometry" />
        </mxCell>
        <mxCell id="_6nD0CdhUFyhvwUly3kX-112" value="- date_solicitation: date" style="text;strokeColor=none;fillColor=none;align=left;verticalAlign=top;spacingLeft=4;spacingRight=4;overflow=hidden;rotatable=0;points=[[0,0.5],[1,0.5]];portConstraint=eastwest;whiteSpace=wrap;html=1;fontSize=16;" parent="_6nD0CdhUFyhvwUly3kX-100" vertex="1">
          <mxGeometry y="308" width="210" height="26" as="geometry" />
        </mxCell>
        <mxCell id="_6nD0CdhUFyhvwUly3kX-113" value="- project_public: int&amp;nbsp;" style="text;strokeColor=none;fillColor=none;align=left;verticalAlign=top;spacingLeft=4;spacingRight=4;overflow=hidden;rotatable=0;points=[[0,0.5],[1,0.5]];portConstraint=eastwest;whiteSpace=wrap;html=1;fontSize=16;" parent="_6nD0CdhUFyhvwUly3kX-100" vertex="1">
          <mxGeometry y="334" width="210" height="26" as="geometry" />
        </mxCell>
        <mxCell id="_6nD0CdhUFyhvwUly3kX-114" value="- created_at: datetime" style="text;strokeColor=none;fillColor=none;align=left;verticalAlign=top;spacingLeft=4;spacingRight=4;overflow=hidden;rotatable=0;points=[[0,0.5],[1,0.5]];portConstraint=eastwest;whiteSpace=wrap;html=1;fontSize=16;" parent="_6nD0CdhUFyhvwUly3kX-100" vertex="1">
          <mxGeometry y="360" width="210" height="26" as="geometry" />
        </mxCell>
        <mxCell id="_6nD0CdhUFyhvwUly3kX-115" value="- update_at: datetime" style="text;strokeColor=none;fillColor=none;align=left;verticalAlign=top;spacingLeft=4;spacingRight=4;overflow=hidden;rotatable=0;points=[[0,0.5],[1,0.5]];portConstraint=eastwest;whiteSpace=wrap;html=1;fontSize=16;" parent="_6nD0CdhUFyhvwUly3kX-100" vertex="1">
          <mxGeometry y="386" width="210" height="34" as="geometry" />
        </mxCell>
        <mxCell id="_6nD0CdhUFyhvwUly3kX-116" value="- sector_id: int" style="text;strokeColor=none;fillColor=none;align=left;verticalAlign=top;spacingLeft=4;spacingRight=4;overflow=hidden;rotatable=0;points=[[0,0.5],[1,0.5]];portConstraint=eastwest;whiteSpace=wrap;html=1;fontSize=16;" parent="_6nD0CdhUFyhvwUly3kX-100" vertex="1">
          <mxGeometry y="420" width="210" height="34" as="geometry" />
        </mxCell>
        <mxCell id="_6nD0CdhUFyhvwUly3kX-117" value="- request_date: date" style="text;strokeColor=none;fillColor=none;align=left;verticalAlign=top;spacingLeft=4;spacingRight=4;overflow=hidden;rotatable=0;points=[[0,0.5],[1,0.5]];portConstraint=eastwest;whiteSpace=wrap;html=1;fontSize=16;" parent="_6nD0CdhUFyhvwUly3kX-100" vertex="1">
          <mxGeometry y="454" width="210" height="34" as="geometry" />
        </mxCell>
        <mxCell id="_6nD0CdhUFyhvwUly3kX-118" value="Project_group" style="swimlane;fontStyle=0;childLayout=stackLayout;horizontal=1;startSize=26;fillColor=none;horizontalStack=0;resizeParent=1;resizeParentMax=0;resizeLast=0;collapsible=1;marginBottom=0;whiteSpace=wrap;html=1;fontSize=16;" parent="1" vertex="1">
          <mxGeometry x="1072" y="-92" width="240" height="78" as="geometry" />
        </mxCell>
        <mxCell id="_6nD0CdhUFyhvwUly3kX-119" value="- project_id: int" style="text;strokeColor=none;fillColor=none;align=left;verticalAlign=top;spacingLeft=4;spacingRight=4;overflow=hidden;rotatable=0;points=[[0,0.5],[1,0.5]];portConstraint=eastwest;whiteSpace=wrap;html=1;fontSize=16;" parent="_6nD0CdhUFyhvwUly3kX-118" vertex="1">
          <mxGeometry y="26" width="240" height="26" as="geometry" />
        </mxCell>
        <mxCell id="_6nD0CdhUFyhvwUly3kX-120" value="- group_id: int" style="text;strokeColor=none;fillColor=none;align=left;verticalAlign=top;spacingLeft=4;spacingRight=4;overflow=hidden;rotatable=0;points=[[0,0.5],[1,0.5]];portConstraint=eastwest;whiteSpace=wrap;html=1;fontSize=16;" parent="_6nD0CdhUFyhvwUly3kX-118" vertex="1">
          <mxGeometry y="52" width="240" height="26" as="geometry" />
        </mxCell>
        <mxCell id="_6nD0CdhUFyhvwUly3kX-121" value="N" style="text;html=1;align=center;verticalAlign=middle;resizable=0;points=[];autosize=1;strokeColor=none;fillColor=none;fontSize=16;" parent="1" vertex="1">
          <mxGeometry x="92" y="220" width="40" height="30" as="geometry" />
        </mxCell>
        <mxCell id="_6nD0CdhUFyhvwUly3kX-122" value="1" style="text;html=1;align=center;verticalAlign=middle;resizable=0;points=[];autosize=1;strokeColor=none;fillColor=none;fontSize=16;" parent="1" vertex="1">
          <mxGeometry x="92" y="180" width="30" height="30" as="geometry" />
        </mxCell>
        <mxCell id="_6nD0CdhUFyhvwUly3kX-123" value="Comment" style="swimlane;fontStyle=0;childLayout=stackLayout;horizontal=1;startSize=26;fillColor=none;horizontalStack=0;resizeParent=1;resizeParentMax=0;resizeLast=0;collapsible=1;marginBottom=0;whiteSpace=wrap;html=1;fontSize=16;" parent="1" vertex="1">
          <mxGeometry x="32" y="-570" width="240" height="182" as="geometry" />
        </mxCell>
        <mxCell id="_6nD0CdhUFyhvwUly3kX-124" value="- id" style="text;strokeColor=none;fillColor=none;align=left;verticalAlign=top;spacingLeft=4;spacingRight=4;overflow=hidden;rotatable=0;points=[[0,0.5],[1,0.5]];portConstraint=eastwest;whiteSpace=wrap;html=1;fontSize=16;" parent="_6nD0CdhUFyhvwUly3kX-123" vertex="1">
          <mxGeometry y="26" width="240" height="26" as="geometry" />
        </mxCell>
        <mxCell id="_6nD0CdhUFyhvwUly3kX-125" value="- creation_date: datetime" style="text;strokeColor=none;fillColor=none;align=left;verticalAlign=top;spacingLeft=4;spacingRight=4;overflow=hidden;rotatable=0;points=[[0,0.5],[1,0.5]];portConstraint=eastwest;whiteSpace=wrap;html=1;fontSize=16;" parent="_6nD0CdhUFyhvwUly3kX-123" vertex="1">
          <mxGeometry y="52" width="240" height="26" as="geometry" />
        </mxCell>
        <mxCell id="_6nD0CdhUFyhvwUly3kX-126" value="- update_at: datetime" style="text;strokeColor=none;fillColor=none;align=left;verticalAlign=top;spacingLeft=4;spacingRight=4;overflow=hidden;rotatable=0;points=[[0,0.5],[1,0.5]];portConstraint=eastwest;whiteSpace=wrap;html=1;fontSize=16;" parent="_6nD0CdhUFyhvwUly3kX-123" vertex="1">
          <mxGeometry y="78" width="240" height="26" as="geometry" />
        </mxCell>
        <mxCell id="_6nD0CdhUFyhvwUly3kX-127" value="- body: text" style="text;strokeColor=none;fillColor=none;align=left;verticalAlign=top;spacingLeft=4;spacingRight=4;overflow=hidden;rotatable=0;points=[[0,0.5],[1,0.5]];portConstraint=eastwest;whiteSpace=wrap;html=1;fontSize=16;" parent="_6nD0CdhUFyhvwUly3kX-123" vertex="1">
          <mxGeometry y="104" width="240" height="26" as="geometry" />
        </mxCell>
        <mxCell id="_6nD0CdhUFyhvwUly3kX-128" value="- task_id: int" style="text;strokeColor=none;fillColor=none;align=left;verticalAlign=top;spacingLeft=4;spacingRight=4;overflow=hidden;rotatable=0;points=[[0,0.5],[1,0.5]];portConstraint=eastwest;whiteSpace=wrap;html=1;fontSize=16;" parent="_6nD0CdhUFyhvwUly3kX-123" vertex="1">
          <mxGeometry y="130" width="240" height="26" as="geometry" />
        </mxCell>
        <mxCell id="_6nD0CdhUFyhvwUly3kX-129" value="- users_id: int" style="text;strokeColor=none;fillColor=none;align=left;verticalAlign=top;spacingLeft=4;spacingRight=4;overflow=hidden;rotatable=0;points=[[0,0.5],[1,0.5]];portConstraint=eastwest;whiteSpace=wrap;html=1;fontSize=16;" parent="_6nD0CdhUFyhvwUly3kX-123" vertex="1">
          <mxGeometry y="156" width="240" height="26" as="geometry" />
        </mxCell>
        <mxCell id="_6nD0CdhUFyhvwUly3kX-130" value="Requestion_sector" style="swimlane;fontStyle=0;childLayout=stackLayout;horizontal=1;startSize=26;fillColor=none;horizontalStack=0;resizeParent=1;resizeParentMax=0;resizeLast=0;collapsible=1;marginBottom=0;whiteSpace=wrap;html=1;fontSize=16;" parent="1" vertex="1">
          <mxGeometry x="1072" y="64" width="240" height="182" as="geometry" />
        </mxCell>
        <mxCell id="_6nD0CdhUFyhvwUly3kX-131" value="- id: int" style="text;strokeColor=none;fillColor=none;align=left;verticalAlign=top;spacingLeft=4;spacingRight=4;overflow=hidden;rotatable=0;points=[[0,0.5],[1,0.5]];portConstraint=eastwest;whiteSpace=wrap;html=1;fontSize=16;" parent="_6nD0CdhUFyhvwUly3kX-130" vertex="1">
          <mxGeometry y="26" width="240" height="26" as="geometry" />
        </mxCell>
        <mxCell id="_6nD0CdhUFyhvwUly3kX-132" value="- name: varchar" style="text;strokeColor=none;fillColor=none;align=left;verticalAlign=top;spacingLeft=4;spacingRight=4;overflow=hidden;rotatable=0;points=[[0,0.5],[1,0.5]];portConstraint=eastwest;whiteSpace=wrap;html=1;fontSize=16;" parent="_6nD0CdhUFyhvwUly3kX-130" vertex="1">
          <mxGeometry y="52" width="240" height="26" as="geometry" />
        </mxCell>
        <mxCell id="_6nD0CdhUFyhvwUly3kX-133" value="- descrition: varchar" style="text;strokeColor=none;fillColor=none;align=left;verticalAlign=top;spacingLeft=4;spacingRight=4;overflow=hidden;rotatable=0;points=[[0,0.5],[1,0.5]];portConstraint=eastwest;whiteSpace=wrap;html=1;fontSize=16;" parent="_6nD0CdhUFyhvwUly3kX-130" vertex="1">
          <mxGeometry y="78" width="240" height="26" as="geometry" />
        </mxCell>
        <mxCell id="_6nD0CdhUFyhvwUly3kX-134" value="- created_at: datetime" style="text;strokeColor=none;fillColor=none;align=left;verticalAlign=top;spacingLeft=4;spacingRight=4;overflow=hidden;rotatable=0;points=[[0,0.5],[1,0.5]];portConstraint=eastwest;whiteSpace=wrap;html=1;fontSize=16;" parent="_6nD0CdhUFyhvwUly3kX-130" vertex="1">
          <mxGeometry y="104" width="240" height="26" as="geometry" />
        </mxCell>
        <mxCell id="_6nD0CdhUFyhvwUly3kX-135" value="- update_at: datetime" style="text;strokeColor=none;fillColor=none;align=left;verticalAlign=top;spacingLeft=4;spacingRight=4;overflow=hidden;rotatable=0;points=[[0,0.5],[1,0.5]];portConstraint=eastwest;whiteSpace=wrap;html=1;fontSize=16;" parent="_6nD0CdhUFyhvwUly3kX-130" vertex="1">
          <mxGeometry y="130" width="240" height="26" as="geometry" />
        </mxCell>
        <mxCell id="_6nD0CdhUFyhvwUly3kX-136" value="- deleted_at: datetime" style="text;strokeColor=none;fillColor=none;align=left;verticalAlign=top;spacingLeft=4;spacingRight=4;overflow=hidden;rotatable=0;points=[[0,0.5],[1,0.5]];portConstraint=eastwest;whiteSpace=wrap;html=1;fontSize=16;" parent="_6nD0CdhUFyhvwUly3kX-130" vertex="1">
          <mxGeometry y="156" width="240" height="26" as="geometry" />
        </mxCell>
        <mxCell id="_6nD0CdhUFyhvwUly3kX-137" value="Deploy" style="swimlane;fontStyle=0;childLayout=stackLayout;horizontal=1;startSize=26;fillColor=none;horizontalStack=0;resizeParent=1;resizeParentMax=0;resizeLast=0;collapsible=1;marginBottom=0;whiteSpace=wrap;html=1;fontSize=16;" parent="1" vertex="1">
          <mxGeometry x="382" y="280" width="232" height="260" as="geometry" />
        </mxCell>
        <mxCell id="_6nD0CdhUFyhvwUly3kX-138" value="- updated_at: datetime" style="text;strokeColor=none;fillColor=none;align=left;verticalAlign=top;spacingLeft=4;spacingRight=4;overflow=hidden;rotatable=0;points=[[0,0.5],[1,0.5]];portConstraint=eastwest;whiteSpace=wrap;html=1;fontSize=16;" parent="_6nD0CdhUFyhvwUly3kX-137" vertex="1">
          <mxGeometry y="26" width="232" height="26" as="geometry" />
        </mxCell>
        <mxCell id="_6nD0CdhUFyhvwUly3kX-139" value="- id: int" style="text;strokeColor=none;fillColor=none;align=left;verticalAlign=top;spacingLeft=4;spacingRight=4;overflow=hidden;rotatable=0;points=[[0,0.5],[1,0.5]];portConstraint=eastwest;whiteSpace=wrap;html=1;fontSize=16;" parent="_6nD0CdhUFyhvwUly3kX-137" vertex="1">
          <mxGeometry y="52" width="232" height="26" as="geometry" />
        </mxCell>
        <mxCell id="_6nD0CdhUFyhvwUly3kX-140" value="- project_id: int" style="text;strokeColor=none;fillColor=none;align=left;verticalAlign=top;spacingLeft=4;spacingRight=4;overflow=hidden;rotatable=0;points=[[0,0.5],[1,0.5]];portConstraint=eastwest;whiteSpace=wrap;html=1;fontSize=16;" parent="_6nD0CdhUFyhvwUly3kX-137" vertex="1">
          <mxGeometry y="78" width="232" height="26" as="geometry" />
        </mxCell>
        <mxCell id="_6nD0CdhUFyhvwUly3kX-141" value="- deploy_date: datetime" style="text;strokeColor=none;fillColor=none;align=left;verticalAlign=top;spacingLeft=4;spacingRight=4;overflow=hidden;rotatable=0;points=[[0,0.5],[1,0.5]];portConstraint=eastwest;whiteSpace=wrap;html=1;fontSize=16;" parent="_6nD0CdhUFyhvwUly3kX-137" vertex="1">
          <mxGeometry y="104" width="232" height="26" as="geometry" />
        </mxCell>
        <mxCell id="_6nD0CdhUFyhvwUly3kX-142" value="- message: text" style="text;strokeColor=none;fillColor=none;align=left;verticalAlign=top;spacingLeft=4;spacingRight=4;overflow=hidden;rotatable=0;points=[[0,0.5],[1,0.5]];portConstraint=eastwest;whiteSpace=wrap;html=1;fontSize=16;" parent="_6nD0CdhUFyhvwUly3kX-137" vertex="1">
          <mxGeometry y="130" width="232" height="26" as="geometry" />
        </mxCell>
        <mxCell id="_6nD0CdhUFyhvwUly3kX-143" value="- confirmed: int" style="text;strokeColor=none;fillColor=none;align=left;verticalAlign=top;spacingLeft=4;spacingRight=4;overflow=hidden;rotatable=0;points=[[0,0.5],[1,0.5]];portConstraint=eastwest;whiteSpace=wrap;html=1;fontSize=16;" parent="_6nD0CdhUFyhvwUly3kX-137" vertex="1">
          <mxGeometry y="156" width="232" height="26" as="geometry" />
        </mxCell>
        <mxCell id="_6nD0CdhUFyhvwUly3kX-144" value="- branch: varchar" style="text;strokeColor=none;fillColor=none;align=left;verticalAlign=top;spacingLeft=4;spacingRight=4;overflow=hidden;rotatable=0;points=[[0,0.5],[1,0.5]];portConstraint=eastwest;whiteSpace=wrap;html=1;fontSize=16;" parent="_6nD0CdhUFyhvwUly3kX-137" vertex="1">
          <mxGeometry y="182" width="232" height="26" as="geometry" />
        </mxCell>
        <mxCell id="_6nD0CdhUFyhvwUly3kX-145" value="- ip_server: varchar" style="text;strokeColor=none;fillColor=none;align=left;verticalAlign=top;spacingLeft=4;spacingRight=4;overflow=hidden;rotatable=0;points=[[0,0.5],[1,0.5]];portConstraint=eastwest;whiteSpace=wrap;html=1;fontSize=16;" parent="_6nD0CdhUFyhvwUly3kX-137" vertex="1">
          <mxGeometry y="208" width="232" height="26" as="geometry" />
        </mxCell>
        <mxCell id="_6nD0CdhUFyhvwUly3kX-146" value="- created_at: datetime" style="text;strokeColor=none;fillColor=none;align=left;verticalAlign=top;spacingLeft=4;spacingRight=4;overflow=hidden;rotatable=0;points=[[0,0.5],[1,0.5]];portConstraint=eastwest;whiteSpace=wrap;html=1;fontSize=16;" parent="_6nD0CdhUFyhvwUly3kX-137" vertex="1">
          <mxGeometry y="234" width="232" height="26" as="geometry" />
        </mxCell>
        <mxCell id="_6nD0CdhUFyhvwUly3kX-147" style="edgeStyle=none;curved=1;rounded=0;orthogonalLoop=1;jettySize=auto;html=1;exitX=1;exitY=0.5;exitDx=0;exitDy=0;entryX=0;entryY=0.5;entryDx=0;entryDy=0;fontSize=12;startSize=8;endSize=8;endArrow=none;endFill=0;" parent="1" source="_6nD0CdhUFyhvwUly3kX-139" target="_6nD0CdhUFyhvwUly3kX-116" edge="1">
          <mxGeometry relative="1" as="geometry" />
        </mxCell>
        <mxCell id="_6nD0CdhUFyhvwUly3kX-148" value="1" style="text;html=1;align=center;verticalAlign=middle;resizable=0;points=[];autosize=1;strokeColor=none;fillColor=none;fontSize=16;" parent="1" vertex="1">
          <mxGeometry x="722" y="260" width="30" height="30" as="geometry" />
        </mxCell>
        <mxCell id="_6nD0CdhUFyhvwUly3kX-149" value="AssociaÃ§Ã£o" style="text;html=1;align=center;verticalAlign=middle;resizable=0;points=[];autosize=1;strokeColor=none;fillColor=none;fontSize=16;rotation=0;" parent="1" vertex="1">
          <mxGeometry x="277" y="-208" width="110" height="30" as="geometry" />
        </mxCell>
        <mxCell id="_6nD0CdhUFyhvwUly3kX-150" value="1" style="text;html=1;align=center;verticalAlign=middle;resizable=0;points=[];autosize=1;strokeColor=none;fillColor=none;fontSize=16;" parent="1" vertex="1">
          <mxGeometry x="367" y="-250" width="30" height="30" as="geometry" />
        </mxCell>
        <mxCell id="_6nD0CdhUFyhvwUly3kX-151" value="N" style="text;html=1;align=center;verticalAlign=middle;resizable=0;points=[];autosize=1;strokeColor=none;fillColor=none;fontSize=16;" parent="1" vertex="1">
          <mxGeometry x="272" y="-246" width="40" height="30" as="geometry" />
        </mxCell>
        <mxCell id="_6nD0CdhUFyhvwUly3kX-152" value="AssociaÃ§Ã£o" style="text;html=1;align=center;verticalAlign=middle;resizable=0;points=[];autosize=1;strokeColor=none;fillColor=none;fontSize=16;rotation=-15;" parent="1" vertex="1">
          <mxGeometry x="987" y="-208" width="110" height="30" as="geometry" />
        </mxCell>
        <mxCell id="_6nD0CdhUFyhvwUly3kX-153" value="Possui" style="text;html=1;align=center;verticalAlign=middle;resizable=0;points=[];autosize=1;strokeColor=none;fillColor=none;fontSize=16;" parent="1" vertex="1">
          <mxGeometry x="172" y="-362" width="70" height="30" as="geometry" />
        </mxCell>
        <mxCell id="_6nD0CdhUFyhvwUly3kX-154" value="Possui" style="text;html=1;align=center;verticalAlign=middle;resizable=0;points=[];autosize=1;strokeColor=none;fillColor=none;fontSize=16;" parent="1" vertex="1">
          <mxGeometry x="162" y="190" width="70" height="30" as="geometry" />
        </mxCell>
        <mxCell id="_6nD0CdhUFyhvwUly3kX-155" value="Possui" style="text;html=1;align=center;verticalAlign=middle;resizable=0;points=[];autosize=1;strokeColor=none;fillColor=none;fontSize=16;rotation=45;" parent="1" vertex="1">
          <mxGeometry x="297" y="-98" width="70" height="30" as="geometry" />
        </mxCell>
        <mxCell id="_6nD0CdhUFyhvwUly3kX-156" value="Possui" style="text;html=1;align=center;verticalAlign=middle;resizable=0;points=[];autosize=1;strokeColor=none;fillColor=none;fontSize=16;rotation=50;" parent="1" vertex="1">
          <mxGeometry x="297" y="30" width="70" height="30" as="geometry" />
        </mxCell>
        <mxCell id="_6nD0CdhUFyhvwUly3kX-157" value="AssociaÃ§Ã£o" style="text;html=1;align=center;verticalAlign=middle;resizable=0;points=[];autosize=1;strokeColor=none;fillColor=none;fontSize=16;" parent="1" vertex="1">
          <mxGeometry x="633" y="-216" width="110" height="30" as="geometry" />
        </mxCell>
        <mxCell id="_6nD0CdhUFyhvwUly3kX-158" value="Contem" style="text;html=1;align=center;verticalAlign=middle;resizable=0;points=[];autosize=1;strokeColor=none;fillColor=none;fontSize=16;" parent="1" vertex="1">
          <mxGeometry x="1112" y="-158" width="80" height="30" as="geometry" />
        </mxCell>
        <mxCell id="_6nD0CdhUFyhvwUly3kX-159" value="Contem" style="text;html=1;align=center;verticalAlign=middle;resizable=0;points=[];autosize=1;strokeColor=none;fillColor=none;fontSize=16;rotation=-25;" parent="1" vertex="1">
          <mxGeometry x="977" y="-110" width="80" height="30" as="geometry" />
        </mxCell>
        <mxCell id="_6nD0CdhUFyhvwUly3kX-160" value="Contem" style="text;html=1;align=center;verticalAlign=middle;resizable=0;points=[];autosize=1;strokeColor=none;fillColor=none;fontSize=16;rotation=30;" parent="1" vertex="1">
          <mxGeometry x="992" y="-2" width="80" height="30" as="geometry" />
        </mxCell>
        <mxCell id="_6nD0CdhUFyhvwUly3kX-161" value="Possui" style="text;html=1;align=center;verticalAlign=middle;resizable=0;points=[];autosize=1;strokeColor=none;fillColor=none;fontSize=16;rotation=-40;" parent="1" vertex="1">
          <mxGeometry x="658" y="-98" width="70" height="30" as="geometry" />
        </mxCell>
        <mxCell id="_6nD0CdhUFyhvwUly3kX-162" value="Possui" style="text;html=1;align=center;verticalAlign=middle;resizable=0;points=[];autosize=1;strokeColor=none;fillColor=none;fontSize=16;rotation=-15;" parent="1" vertex="1">
          <mxGeometry x="658" y="40" width="70" height="30" as="geometry" />
        </mxCell>
        <mxCell id="_6nD0CdhUFyhvwUly3kX-163" value="Contem" style="text;html=1;align=center;verticalAlign=middle;resizable=0;points=[];autosize=1;strokeColor=none;fillColor=none;fontSize=16;rotation=-20;" parent="1" vertex="1">
          <mxGeometry x="648" y="280" width="80" height="30" as="geometry" />
        </mxCell>
        <mxCell id="UhHixCHtSKk-JEi6ukYZ-1" value="N" style="text;html=1;align=center;verticalAlign=middle;resizable=0;points=[];autosize=1;strokeColor=none;fillColor=none;fontSize=16;" vertex="1" parent="1">
          <mxGeometry x="960" y="-92" width="30" height="31" as="geometry" />
        </mxCell>
      </root>
    </mxGraphModel>
  </diagram>
  <diagram id="Rhz6eFR8LKv-Gn8zlyr4" name="PÃ¡gina-2">
    <mxGraphModel dx="1258" dy="1011" grid="0" gridSize="10" guides="1" tooltips="1" connect="1" arrows="1" fold="1" page="0" pageScale="1" pageWidth="1200" pageHeight="1920" math="0" shadow="0">
      <root>
        <mxCell id="0" />
        <mxCell id="1" parent="0" />
        <mxCell id="Yc64cG6RVL1I6GsII0r4-20" style="edgeStyle=none;curved=1;rounded=0;orthogonalLoop=1;jettySize=auto;html=1;exitX=0.5;exitY=1;exitDx=0;exitDy=0;fontSize=12;startSize=8;endSize=8;startArrow=classic;startFill=1;" parent="1" source="Yc64cG6RVL1I6GsII0r4-2" target="Yc64cG6RVL1I6GsII0r4-6" edge="1">
          <mxGeometry relative="1" as="geometry" />
        </mxCell>
        <mxCell id="Yc64cG6RVL1I6GsII0r4-24" style="edgeStyle=none;curved=1;rounded=0;orthogonalLoop=1;jettySize=auto;html=1;exitX=0;exitY=0.5;exitDx=0;exitDy=0;entryX=1;entryY=0.5;entryDx=0;entryDy=0;fontSize=12;startSize=8;endSize=8;startArrow=classic;startFill=1;" parent="1" source="Yc64cG6RVL1I6GsII0r4-2" target="Yc64cG6RVL1I6GsII0r4-3" edge="1">
          <mxGeometry relative="1" as="geometry" />
        </mxCell>
        <mxCell id="Yc64cG6RVL1I6GsII0r4-33" style="edgeStyle=none;curved=1;rounded=0;orthogonalLoop=1;jettySize=auto;html=1;exitX=0.5;exitY=0;exitDx=0;exitDy=0;fontSize=12;startSize=8;endSize=8;" parent="1" source="Yc64cG6RVL1I6GsII0r4-2" target="Yc64cG6RVL1I6GsII0r4-29" edge="1">
          <mxGeometry relative="1" as="geometry" />
        </mxCell>
        <mxCell id="Yc64cG6RVL1I6GsII0r4-2" value="Controllers" style="rounded=1;whiteSpace=wrap;html=1;fontSize=16;" parent="1" vertex="1">
          <mxGeometry x="130" y="168" width="120" height="60" as="geometry" />
        </mxCell>
        <mxCell id="Yc64cG6RVL1I6GsII0r4-27" value="" style="edgeStyle=none;curved=1;rounded=0;orthogonalLoop=1;jettySize=auto;html=1;fontSize=12;startSize=8;endSize=8;" parent="1" source="Yc64cG6RVL1I6GsII0r4-3" target="Yc64cG6RVL1I6GsII0r4-26" edge="1">
          <mxGeometry relative="1" as="geometry" />
        </mxCell>
        <mxCell id="Yc64cG6RVL1I6GsII0r4-3" value="Views" style="whiteSpace=wrap;html=1;fontSize=16;rounded=1;" parent="1" vertex="1">
          <mxGeometry x="-119" y="168" width="120" height="60" as="geometry" />
        </mxCell>
        <mxCell id="Yc64cG6RVL1I6GsII0r4-39" style="edgeStyle=none;curved=1;rounded=0;orthogonalLoop=1;jettySize=auto;html=1;exitX=1;exitY=0.5;exitDx=0;exitDy=0;entryX=0;entryY=0.5;entryDx=0;entryDy=0;entryPerimeter=0;fontSize=12;startSize=8;endSize=8;" parent="1" source="Yc64cG6RVL1I6GsII0r4-6" target="Yc64cG6RVL1I6GsII0r4-38" edge="1">
          <mxGeometry relative="1" as="geometry" />
        </mxCell>
        <mxCell id="Yc64cG6RVL1I6GsII0r4-6" value="Models" style="whiteSpace=wrap;html=1;fontSize=16;rounded=1;" parent="1" vertex="1">
          <mxGeometry x="130" y="290" width="120" height="60" as="geometry" />
        </mxCell>
        <mxCell id="Yc64cG6RVL1I6GsII0r4-21" style="edgeStyle=none;curved=1;rounded=0;orthogonalLoop=1;jettySize=auto;html=1;exitX=1;exitY=0.3333333333333333;exitDx=0;exitDy=0;exitPerimeter=0;entryX=0;entryY=0.25;entryDx=0;entryDy=0;fontSize=12;startSize=8;endSize=8;startArrow=classic;startFill=1;" parent="1" source="Yc64cG6RVL1I6GsII0r4-11" target="Yc64cG6RVL1I6GsII0r4-3" edge="1">
          <mxGeometry relative="1" as="geometry" />
        </mxCell>
        <mxCell id="Yc64cG6RVL1I6GsII0r4-11" value="UsuÃ¡rio" style="shape=umlActor;verticalLabelPosition=bottom;verticalAlign=top;html=1;outlineConnect=0;fontSize=16;" parent="1" vertex="1">
          <mxGeometry x="-242" y="163" width="30" height="60" as="geometry" />
        </mxCell>
        <mxCell id="Yc64cG6RVL1I6GsII0r4-18" value="ManipulaÃ§Ã£o" style="text;html=1;align=center;verticalAlign=middle;resizable=0;points=[];autosize=1;strokeColor=none;fillColor=none;fontSize=16;" parent="1" vertex="1">
          <mxGeometry x="196" y="239" width="109" height="31" as="geometry" />
        </mxCell>
        <mxCell id="Yc64cG6RVL1I6GsII0r4-19" value="RederizaÃ§Ã£o" style="text;html=1;align=center;verticalAlign=middle;resizable=0;points=[];autosize=1;strokeColor=none;fillColor=none;fontSize=16;" parent="1" vertex="1">
          <mxGeometry x="19" y="204" width="108" height="31" as="geometry" />
        </mxCell>
        <mxCell id="Yc64cG6RVL1I6GsII0r4-28" style="edgeStyle=none;curved=1;rounded=0;orthogonalLoop=1;jettySize=auto;html=1;exitX=1;exitY=0.5;exitDx=0;exitDy=0;fontSize=12;startSize=8;endSize=8;" parent="1" source="Yc64cG6RVL1I6GsII0r4-26" target="Yc64cG6RVL1I6GsII0r4-2" edge="1">
          <mxGeometry relative="1" as="geometry" />
        </mxCell>
        <mxCell id="Yc64cG6RVL1I6GsII0r4-30" value="" style="edgeStyle=none;curved=1;rounded=0;orthogonalLoop=1;jettySize=auto;html=1;fontSize=12;startSize=8;endSize=8;" parent="1" source="Yc64cG6RVL1I6GsII0r4-26" target="Yc64cG6RVL1I6GsII0r4-29" edge="1">
          <mxGeometry relative="1" as="geometry" />
        </mxCell>
        <mxCell id="Yc64cG6RVL1I6GsII0r4-26" value="Route" style="whiteSpace=wrap;html=1;fontSize=16;rounded=1;" parent="1" vertex="1">
          <mxGeometry x="-117" y="-3" width="120" height="60" as="geometry" />
        </mxCell>
        <mxCell id="Yc64cG6RVL1I6GsII0r4-31" style="edgeStyle=none;curved=1;rounded=0;orthogonalLoop=1;jettySize=auto;html=1;exitX=0.5;exitY=1;exitDx=0;exitDy=0;fontSize=12;startSize=8;endSize=8;" parent="1" source="Yc64cG6RVL1I6GsII0r4-29" target="Yc64cG6RVL1I6GsII0r4-2" edge="1">
          <mxGeometry relative="1" as="geometry" />
        </mxCell>
        <mxCell id="Yc64cG6RVL1I6GsII0r4-29" value="Middeware" style="whiteSpace=wrap;html=1;fontSize=16;rounded=1;" parent="1" vertex="1">
          <mxGeometry x="127" y="-49" width="120" height="60" as="geometry" />
        </mxCell>
        <mxCell id="Yc64cG6RVL1I6GsII0r4-34" value="RequisiÃ§Ã£o&lt;br&gt;HTTP" style="text;html=1;align=center;verticalAlign=middle;resizable=0;points=[];autosize=1;strokeColor=none;fillColor=none;fontSize=16;" parent="1" vertex="1">
          <mxGeometry x="-162" y="72" width="97" height="50" as="geometry" />
        </mxCell>
        <mxCell id="Yc64cG6RVL1I6GsII0r4-35" value="Tratar a manipulaÃ§Ã£o" style="text;html=1;align=center;verticalAlign=middle;resizable=0;points=[];autosize=1;strokeColor=none;fillColor=none;fontSize=16;" parent="1" vertex="1">
          <mxGeometry x="196" y="88" width="169" height="31" as="geometry" />
        </mxCell>
        <mxCell id="Yc64cG6RVL1I6GsII0r4-36" value="Filtragem de requisiÃ§Ã£o" style="text;html=1;align=center;verticalAlign=middle;resizable=0;points=[];autosize=1;strokeColor=none;fillColor=none;fontSize=16;" parent="1" vertex="1">
          <mxGeometry x="100" y="-99" width="184" height="31" as="geometry" />
        </mxCell>
        <mxCell id="Yc64cG6RVL1I6GsII0r4-40" style="edgeStyle=none;curved=1;rounded=0;orthogonalLoop=1;jettySize=auto;html=1;exitX=0;exitY=0.5;exitDx=0;exitDy=0;exitPerimeter=0;entryX=1;entryY=0.5;entryDx=0;entryDy=0;fontSize=12;startSize=8;endSize=8;" parent="1" source="Yc64cG6RVL1I6GsII0r4-38" target="Yc64cG6RVL1I6GsII0r4-6" edge="1">
          <mxGeometry relative="1" as="geometry" />
        </mxCell>
        <mxCell id="Yc64cG6RVL1I6GsII0r4-38" value="" style="strokeWidth=2;html=1;shape=mxgraph.flowchart.database;whiteSpace=wrap;fontSize=16;" parent="1" vertex="1">
          <mxGeometry x="339" y="290" width="60" height="60" as="geometry" />
        </mxCell>
        <mxCell id="Yc64cG6RVL1I6GsII0r4-41" value="Banco de dados" style="text;html=1;align=center;verticalAlign=middle;resizable=0;points=[];autosize=1;strokeColor=none;fillColor=none;fontSize=16;" parent="1" vertex="1">
          <mxGeometry x="316" y="249" width="134" height="31" as="geometry" />
        </mxCell>
      </root>
    </mxGraphModel>
  </diagram>
  <diagram id="I-qVyZWnEh_FZ3kSUHlU" name="PÃ¡gina-3">
    <mxGraphModel dx="1258" dy="1411" grid="0" gridSize="10" guides="1" tooltips="1" connect="1" arrows="1" fold="1" page="0" pageScale="1" pageWidth="1200" pageHeight="1920" math="0" shadow="0">
      <root>
        <mxCell id="0" />
        <mxCell id="1" parent="0" />
        <mxCell id="0_BEZdi_rXg5MvRT5GVO-1" style="edgeStyle=none;curved=1;rounded=0;orthogonalLoop=1;jettySize=auto;html=1;exitX=0.025;exitY=-0.033;exitDx=0;exitDy=0;entryX=1;entryY=0;entryDx=0;entryDy=0;fontSize=12;startSize=8;endSize=8;endArrow=none;endFill=0;exitPerimeter=0;" parent="1" source="0_BEZdi_rXg5MvRT5GVO-108" target="0_BEZdi_rXg5MvRT5GVO-81" edge="1">
          <mxGeometry relative="1" as="geometry">
            <mxPoint x="710.0000000000014" y="-62" as="sourcePoint" />
            <mxPoint x="640" y="20" as="targetPoint" />
          </mxGeometry>
        </mxCell>
        <mxCell id="0_BEZdi_rXg5MvRT5GVO-2" style="edgeStyle=none;curved=1;rounded=0;orthogonalLoop=1;jettySize=auto;html=1;exitX=0;exitY=0.5;exitDx=0;exitDy=0;entryX=1;entryY=0.5;entryDx=0;entryDy=0;fontSize=12;startSize=8;endSize=8;endArrow=none;endFill=0;" parent="1" source="0_BEZdi_rXg5MvRT5GVO-101" target="0_BEZdi_rXg5MvRT5GVO-88" edge="1">
          <mxGeometry relative="1" as="geometry">
            <mxPoint x="710" y="-114" as="sourcePoint" />
            <mxPoint x="636" y="-95" as="targetPoint" />
          </mxGeometry>
        </mxCell>
        <mxCell id="0_BEZdi_rXg5MvRT5GVO-3" style="edgeStyle=none;curved=1;rounded=0;orthogonalLoop=1;jettySize=auto;html=1;exitX=0;exitY=0.5;exitDx=0;exitDy=0;entryX=1;entryY=0.5;entryDx=0;entryDy=0;fontSize=12;startSize=8;endSize=8;endArrow=none;endFill=0;" parent="1" source="0_BEZdi_rXg5MvRT5GVO-82" target="0_BEZdi_rXg5MvRT5GVO-74" edge="1">
          <mxGeometry relative="1" as="geometry">
            <mxPoint x="360" y="46" as="sourcePoint" />
            <mxPoint x="294" y="-69" as="targetPoint" />
          </mxGeometry>
        </mxCell>
        <mxCell id="0_BEZdi_rXg5MvRT5GVO-4" style="edgeStyle=none;curved=1;rounded=0;orthogonalLoop=1;jettySize=auto;html=1;exitX=0;exitY=0.5;exitDx=0;exitDy=0;entryX=1;entryY=0.5;entryDx=0;entryDy=0;fontSize=12;startSize=8;endSize=8;endArrow=none;endFill=0;" parent="1" source="0_BEZdi_rXg5MvRT5GVO-88" target="0_BEZdi_rXg5MvRT5GVO-70" edge="1">
          <mxGeometry relative="1" as="geometry">
            <mxPoint x="360" y="-95" as="sourcePoint" />
            <mxPoint x="294" y="-95" as="targetPoint" />
          </mxGeometry>
        </mxCell>
        <mxCell id="0_BEZdi_rXg5MvRT5GVO-5" style="edgeStyle=none;curved=1;rounded=0;orthogonalLoop=1;jettySize=auto;html=1;exitX=-0.021;exitY=0.245;exitDx=0;exitDy=0;entryX=1;entryY=0.5;entryDx=0;entryDy=0;fontSize=12;startSize=8;endSize=8;endArrow=none;endFill=0;exitPerimeter=0;" parent="1" source="0_BEZdi_rXg5MvRT5GVO-54" target="0_BEZdi_rXg5MvRT5GVO-66" edge="1">
          <mxGeometry relative="1" as="geometry">
            <mxPoint x="360" y="-195" as="sourcePoint" />
            <mxPoint x="268.32400000000007" y="-120.6880000000001" as="targetPoint" />
          </mxGeometry>
        </mxCell>
        <mxCell id="0_BEZdi_rXg5MvRT5GVO-6" style="edgeStyle=none;curved=1;rounded=0;orthogonalLoop=1;jettySize=auto;html=1;exitX=1.017;exitY=-0.179;exitDx=0;exitDy=0;entryX=0;entryY=0.5;entryDx=0;entryDy=0;fontSize=12;startSize=8;endSize=8;endArrow=none;endFill=0;exitPerimeter=0;" parent="1" source="0_BEZdi_rXg5MvRT5GVO-54" target="0_BEZdi_rXg5MvRT5GVO-58" edge="1">
          <mxGeometry relative="1" as="geometry">
            <mxPoint x="600" y="-221" as="sourcePoint" />
            <mxPoint x="708" y="-224" as="targetPoint" />
          </mxGeometry>
        </mxCell>
        <mxCell id="0_BEZdi_rXg5MvRT5GVO-7" style="edgeStyle=none;curved=1;rounded=0;orthogonalLoop=1;jettySize=auto;html=1;fontSize=12;startSize=8;endSize=8;endArrow=none;endFill=0;" parent="1" edge="1">
          <mxGeometry relative="1" as="geometry">
            <mxPoint x="152" y="-390" as="sourcePoint" />
            <mxPoint x="152" y="-300" as="targetPoint" />
          </mxGeometry>
        </mxCell>
        <mxCell id="0_BEZdi_rXg5MvRT5GVO-8" style="edgeStyle=none;curved=1;rounded=0;orthogonalLoop=1;jettySize=auto;html=1;fontSize=12;startSize=8;endSize=8;endArrow=none;endFill=0;exitX=1.007;exitY=1.013;exitDx=0;exitDy=0;exitPerimeter=0;entryX=0.008;entryY=-0.295;entryDx=0;entryDy=0;entryPerimeter=0;" parent="1" source="0_BEZdi_rXg5MvRT5GVO-58" target="0_BEZdi_rXg5MvRT5GVO-62" edge="1">
          <mxGeometry relative="1" as="geometry">
            <mxPoint x="948" y="-224" as="sourcePoint" />
            <mxPoint x="1072" y="-224" as="targetPoint" />
          </mxGeometry>
        </mxCell>
        <mxCell id="0_BEZdi_rXg5MvRT5GVO-9" value="N" style="text;html=1;align=center;verticalAlign=middle;resizable=0;points=[];autosize=1;strokeColor=none;fillColor=none;fontSize=16;rotation=180;" parent="1" vertex="1">
          <mxGeometry x="982" y="-246" width="40" height="30" as="geometry" />
        </mxCell>
        <mxCell id="0_BEZdi_rXg5MvRT5GVO-10" style="edgeStyle=none;curved=1;rounded=0;orthogonalLoop=1;jettySize=auto;html=1;exitX=0.5;exitY=0;exitDx=0;exitDy=0;entryX=0.5;entryY=1;entryDx=0;entryDy=0;fontSize=12;startSize=8;endSize=8;endArrow=none;endFill=0;" parent="1" source="0_BEZdi_rXg5MvRT5GVO-118" edge="1">
          <mxGeometry relative="1" as="geometry">
            <mxPoint x="1192" y="-114" as="sourcePoint" />
            <mxPoint x="1192" y="-198" as="targetPoint" />
          </mxGeometry>
        </mxCell>
        <mxCell id="0_BEZdi_rXg5MvRT5GVO-11" style="edgeStyle=none;curved=1;rounded=0;orthogonalLoop=1;jettySize=auto;html=1;exitX=0;exitY=0;exitDx=0;exitDy=0;entryX=1;entryY=0.5;entryDx=0;entryDy=0;fontSize=12;startSize=8;endSize=8;endArrow=none;endFill=0;" parent="1" source="0_BEZdi_rXg5MvRT5GVO-130" target="0_BEZdi_rXg5MvRT5GVO-105" edge="1">
          <mxGeometry relative="1" as="geometry">
            <mxPoint x="1040.9999999999995" y="70" as="sourcePoint" />
            <mxPoint x="971.9999999999991" y="-62" as="targetPoint" />
          </mxGeometry>
        </mxCell>
        <mxCell id="0_BEZdi_rXg5MvRT5GVO-12" value="*" style="text;html=1;align=center;verticalAlign=middle;resizable=0;points=[];autosize=1;strokeColor=none;fillColor=none;" parent="1" vertex="1">
          <mxGeometry x="-285" y="-2" width="30" height="30" as="geometry" />
        </mxCell>
        <mxCell id="0_BEZdi_rXg5MvRT5GVO-13" style="edgeStyle=none;curved=1;rounded=0;orthogonalLoop=1;jettySize=auto;html=1;exitX=0.75;exitY=0;exitDx=0;exitDy=0;fontSize=12;startSize=8;endSize=8;" parent="1" edge="1">
          <mxGeometry relative="1" as="geometry">
            <mxPoint x="42" y="642.0000000000002" as="sourcePoint" />
            <mxPoint x="42" y="642.0000000000002" as="targetPoint" />
          </mxGeometry>
        </mxCell>
        <mxCell id="0_BEZdi_rXg5MvRT5GVO-14" style="edgeStyle=none;curved=1;rounded=0;orthogonalLoop=1;jettySize=auto;html=1;exitX=0.5;exitY=0;exitDx=0;exitDy=0;fontSize=12;startSize=8;endSize=8;" parent="1" edge="1">
          <mxGeometry relative="1" as="geometry">
            <mxPoint x="1192" y="-250" as="sourcePoint" />
            <mxPoint x="1192" y="-250" as="targetPoint" />
          </mxGeometry>
        </mxCell>
        <mxCell id="0_BEZdi_rXg5MvRT5GVO-15" style="edgeStyle=none;curved=1;rounded=0;orthogonalLoop=1;jettySize=auto;html=1;exitX=0;exitY=0.5;exitDx=0;exitDy=0;entryX=1;entryY=0.5;entryDx=0;entryDy=0;fontSize=12;startSize=8;endSize=8;endArrow=none;endFill=0;" parent="1" target="0_BEZdi_rXg5MvRT5GVO-103" edge="1">
          <mxGeometry relative="1" as="geometry">
            <mxPoint x="1072" y="-90" as="sourcePoint" />
            <mxPoint x="972" y="-88" as="targetPoint" />
          </mxGeometry>
        </mxCell>
        <mxCell id="0_BEZdi_rXg5MvRT5GVO-16" style="edgeStyle=none;curved=1;rounded=0;orthogonalLoop=1;jettySize=auto;html=1;exitX=0.5;exitY=0;exitDx=0;exitDy=0;fontSize=12;startSize=8;endSize=8;" parent="1" edge="1">
          <mxGeometry relative="1" as="geometry">
            <mxPoint x="152" y="-490" as="sourcePoint" />
            <mxPoint x="152" y="-490" as="targetPoint" />
          </mxGeometry>
        </mxCell>
        <mxCell id="0_BEZdi_rXg5MvRT5GVO-17" style="edgeStyle=none;curved=1;rounded=0;orthogonalLoop=1;jettySize=auto;html=1;exitX=0.75;exitY=0;exitDx=0;exitDy=0;fontSize=12;startSize=8;endSize=8;" parent="1" edge="1">
          <mxGeometry relative="1" as="geometry">
            <mxPoint x="567.0000000000005" y="-121" as="sourcePoint" />
            <mxPoint x="567.0000000000009" y="-121" as="targetPoint" />
          </mxGeometry>
        </mxCell>
        <mxCell id="0_BEZdi_rXg5MvRT5GVO-18" style="edgeStyle=none;curved=1;rounded=0;orthogonalLoop=1;jettySize=auto;html=1;exitX=0.5;exitY=0;exitDx=0;exitDy=0;fontSize=12;startSize=8;endSize=8;" parent="1" edge="1">
          <mxGeometry relative="1" as="geometry">
            <mxPoint x="498" y="-121" as="sourcePoint" />
            <mxPoint x="498" y="-121" as="targetPoint" />
          </mxGeometry>
        </mxCell>
        <mxCell id="0_BEZdi_rXg5MvRT5GVO-19" value="1" style="text;html=1;align=center;verticalAlign=middle;resizable=0;points=[];autosize=1;strokeColor=none;fillColor=none;fontSize=16;" parent="1" vertex="1">
          <mxGeometry x="1057" y="-256" width="30" height="30" as="geometry" />
        </mxCell>
        <mxCell id="0_BEZdi_rXg5MvRT5GVO-20" style="edgeStyle=none;curved=1;rounded=0;orthogonalLoop=1;jettySize=auto;html=1;exitX=0.75;exitY=0;exitDx=0;exitDy=0;fontSize=12;startSize=8;endSize=8;" parent="1" edge="1">
          <mxGeometry relative="1" as="geometry">
            <mxPoint x="570.0000000000005" y="20" as="sourcePoint" />
            <mxPoint x="570.0000000000009" y="20" as="targetPoint" />
          </mxGeometry>
        </mxCell>
        <mxCell id="0_BEZdi_rXg5MvRT5GVO-21" value="1" style="text;html=1;align=center;verticalAlign=middle;resizable=0;points=[];autosize=1;strokeColor=none;fillColor=none;fontSize=16;" parent="1" vertex="1">
          <mxGeometry x="614" y="-256" width="30" height="30" as="geometry" />
        </mxCell>
        <mxCell id="0_BEZdi_rXg5MvRT5GVO-22" value="N" style="text;html=1;align=center;verticalAlign=middle;resizable=0;points=[];autosize=1;strokeColor=none;fillColor=none;fontSize=16;" parent="1" vertex="1">
          <mxGeometry x="703" y="-256" width="40" height="30" as="geometry" />
        </mxCell>
        <mxCell id="0_BEZdi_rXg5MvRT5GVO-23" value="1" style="text;html=1;align=center;verticalAlign=middle;resizable=0;points=[];autosize=1;strokeColor=none;fillColor=none;fontSize=16;" parent="1" vertex="1">
          <mxGeometry x="1207" y="-192" width="30" height="30" as="geometry" />
        </mxCell>
        <mxCell id="0_BEZdi_rXg5MvRT5GVO-24" value="N" style="text;html=1;align=center;verticalAlign=middle;resizable=0;points=[];autosize=1;strokeColor=none;fillColor=none;fontSize=16;" parent="1" vertex="1">
          <mxGeometry x="1207" y="-122" width="40" height="30" as="geometry" />
        </mxCell>
        <mxCell id="0_BEZdi_rXg5MvRT5GVO-25" value="N" style="text;html=1;align=center;verticalAlign=middle;resizable=0;points=[];autosize=1;strokeColor=none;fillColor=none;fontSize=16;" parent="1" vertex="1">
          <mxGeometry x="92" y="-380" width="40" height="30" as="geometry" />
        </mxCell>
        <mxCell id="0_BEZdi_rXg5MvRT5GVO-26" value="1" style="text;html=1;align=center;verticalAlign=middle;resizable=0;points=[];autosize=1;strokeColor=none;fillColor=none;fontSize=16;" parent="1" vertex="1">
          <mxGeometry x="97" y="-340" width="30" height="30" as="geometry" />
        </mxCell>
        <mxCell id="0_BEZdi_rXg5MvRT5GVO-27" value="N" style="text;html=1;align=center;verticalAlign=middle;resizable=0;points=[];autosize=1;strokeColor=none;fillColor=none;fontSize=16;" parent="1" vertex="1">
          <mxGeometry x="1057" y="34" width="40" height="30" as="geometry" />
        </mxCell>
        <mxCell id="0_BEZdi_rXg5MvRT5GVO-28" value="N" style="text;html=1;align=center;verticalAlign=middle;resizable=0;points=[];autosize=1;strokeColor=none;fillColor=none;fontSize=16;" parent="1" vertex="1">
          <mxGeometry x="962" y="-30" width="40" height="30" as="geometry" />
        </mxCell>
        <mxCell id="0_BEZdi_rXg5MvRT5GVO-29" value="1" style="text;html=1;align=center;verticalAlign=middle;resizable=0;points=[];autosize=1;strokeColor=none;fillColor=none;fontSize=16;" parent="1" vertex="1">
          <mxGeometry x="722" y="-135" width="30" height="30" as="geometry" />
        </mxCell>
        <mxCell id="0_BEZdi_rXg5MvRT5GVO-30" value="1" style="text;html=1;align=center;verticalAlign=middle;resizable=0;points=[];autosize=1;strokeColor=none;fillColor=none;fontSize=16;" parent="1" vertex="1">
          <mxGeometry x="644" y="-60" width="30" height="30" as="geometry" />
        </mxCell>
        <mxCell id="0_BEZdi_rXg5MvRT5GVO-31" value="1" style="text;html=1;align=center;verticalAlign=middle;resizable=0;points=[];autosize=1;strokeColor=none;fillColor=none;fontSize=16;" parent="1" vertex="1">
          <mxGeometry x="722" y="30" width="30" height="30" as="geometry" />
        </mxCell>
        <mxCell id="0_BEZdi_rXg5MvRT5GVO-32" value="N" style="text;html=1;align=center;verticalAlign=middle;resizable=0;points=[];autosize=1;strokeColor=none;fillColor=none;fontSize=16;" parent="1" vertex="1">
          <mxGeometry x="626" y="53" width="40" height="30" as="geometry" />
        </mxCell>
        <mxCell id="0_BEZdi_rXg5MvRT5GVO-33" value="N" style="text;html=1;align=center;verticalAlign=middle;resizable=0;points=[];autosize=1;strokeColor=none;fillColor=none;fontSize=16;" parent="1" vertex="1">
          <mxGeometry x="618" y="300" width="40" height="30" as="geometry" />
        </mxCell>
        <mxCell id="0_BEZdi_rXg5MvRT5GVO-34" value="1" style="text;html=1;align=center;verticalAlign=middle;resizable=0;points=[];autosize=1;strokeColor=none;fillColor=none;fontSize=16;" parent="1" vertex="1">
          <mxGeometry x="1052" y="-128" width="30" height="30" as="geometry" />
        </mxCell>
        <mxCell id="0_BEZdi_rXg5MvRT5GVO-35" value="1" style="text;html=1;align=center;verticalAlign=middle;resizable=0;points=[];autosize=1;strokeColor=none;fillColor=none;fontSize=16;" parent="1" vertex="1">
          <mxGeometry x="957" y="-92" width="30" height="30" as="geometry" />
        </mxCell>
        <mxCell id="0_BEZdi_rXg5MvRT5GVO-36" value="1" style="text;html=1;align=center;verticalAlign=middle;resizable=0;points=[];autosize=1;strokeColor=none;fillColor=none;fontSize=16;" parent="1" vertex="1">
          <mxGeometry x="347" y="-68" width="30" height="30" as="geometry" />
        </mxCell>
        <mxCell id="0_BEZdi_rXg5MvRT5GVO-37" value="1" style="text;html=1;align=center;verticalAlign=middle;resizable=0;points=[];autosize=1;strokeColor=none;fillColor=none;fontSize=16;" parent="1" vertex="1">
          <mxGeometry x="272" y="-135" width="30" height="30" as="geometry" />
        </mxCell>
        <mxCell id="0_BEZdi_rXg5MvRT5GVO-38" value="1" style="text;html=1;align=center;verticalAlign=middle;resizable=0;points=[];autosize=1;strokeColor=none;fillColor=none;fontSize=16;" parent="1" vertex="1">
          <mxGeometry x="347" y="60" width="30" height="30" as="geometry" />
        </mxCell>
        <mxCell id="0_BEZdi_rXg5MvRT5GVO-39" value="N" style="text;html=1;align=center;verticalAlign=middle;resizable=0;points=[];autosize=1;strokeColor=none;fillColor=none;fontSize=16;" parent="1" vertex="1">
          <mxGeometry x="272" y="-14" width="40" height="30" as="geometry" />
        </mxCell>
        <mxCell id="0_BEZdi_rXg5MvRT5GVO-40" value="Users" style="swimlane;fontStyle=0;childLayout=stackLayout;horizontal=1;startSize=26;fillColor=none;horizontalStack=0;resizeParent=1;resizeParentMax=0;resizeLast=0;collapsible=1;marginBottom=0;whiteSpace=wrap;html=1;fontSize=16;" parent="1" vertex="1">
          <mxGeometry x="398" y="-577" width="220" height="442" as="geometry" />
        </mxCell>
        <mxCell id="0_BEZdi_rXg5MvRT5GVO-41" value="- id" style="text;strokeColor=none;fillColor=none;align=left;verticalAlign=top;spacingLeft=4;spacingRight=4;overflow=hidden;rotatable=0;points=[[0,0.5],[1,0.5]];portConstraint=eastwest;whiteSpace=wrap;html=1;fontSize=16;" parent="0_BEZdi_rXg5MvRT5GVO-40" vertex="1">
          <mxGeometry y="26" width="220" height="26" as="geometry" />
        </mxCell>
        <mxCell id="0_BEZdi_rXg5MvRT5GVO-42" value="- username: varchar" style="text;strokeColor=none;fillColor=none;align=left;verticalAlign=top;spacingLeft=4;spacingRight=4;overflow=hidden;rotatable=0;points=[[0,0.5],[1,0.5]];portConstraint=eastwest;whiteSpace=wrap;html=1;fontSize=16;" parent="0_BEZdi_rXg5MvRT5GVO-40" vertex="1">
          <mxGeometry y="52" width="220" height="26" as="geometry" />
        </mxCell>
        <mxCell id="0_BEZdi_rXg5MvRT5GVO-43" value="- login: varchar" style="text;strokeColor=none;fillColor=none;align=left;verticalAlign=top;spacingLeft=4;spacingRight=4;overflow=hidden;rotatable=0;points=[[0,0.5],[1,0.5]];portConstraint=eastwest;whiteSpace=wrap;html=1;fontSize=16;" parent="0_BEZdi_rXg5MvRT5GVO-40" vertex="1">
          <mxGeometry y="78" width="220" height="26" as="geometry" />
        </mxCell>
        <mxCell id="0_BEZdi_rXg5MvRT5GVO-44" value="- perfil: int" style="text;strokeColor=none;fillColor=none;align=left;verticalAlign=top;spacingLeft=4;spacingRight=4;overflow=hidden;rotatable=0;points=[[0,0.5],[1,0.5]];portConstraint=eastwest;whiteSpace=wrap;html=1;fontSize=16;" parent="0_BEZdi_rXg5MvRT5GVO-40" vertex="1">
          <mxGeometry y="104" width="220" height="26" as="geometry" />
        </mxCell>
        <mxCell id="0_BEZdi_rXg5MvRT5GVO-45" value="- email: varchar" style="text;strokeColor=none;fillColor=none;align=left;verticalAlign=top;spacingLeft=4;spacingRight=4;overflow=hidden;rotatable=0;points=[[0,0.5],[1,0.5]];portConstraint=eastwest;whiteSpace=wrap;html=1;fontSize=16;" parent="0_BEZdi_rXg5MvRT5GVO-40" vertex="1">
          <mxGeometry y="130" width="220" height="26" as="geometry" />
        </mxCell>
        <mxCell id="0_BEZdi_rXg5MvRT5GVO-46" value="- pass: varchar" style="text;strokeColor=none;fillColor=none;align=left;verticalAlign=top;spacingLeft=4;spacingRight=4;overflow=hidden;rotatable=0;points=[[0,0.5],[1,0.5]];portConstraint=eastwest;whiteSpace=wrap;html=1;fontSize=16;" parent="0_BEZdi_rXg5MvRT5GVO-40" vertex="1">
          <mxGeometry y="156" width="220" height="26" as="geometry" />
        </mxCell>
        <mxCell id="0_BEZdi_rXg5MvRT5GVO-47" value="- image: varchar" style="text;strokeColor=none;fillColor=none;align=left;verticalAlign=top;spacingLeft=4;spacingRight=4;overflow=hidden;rotatable=0;points=[[0,0.5],[1,0.5]];portConstraint=eastwest;whiteSpace=wrap;html=1;fontSize=16;" parent="0_BEZdi_rXg5MvRT5GVO-40" vertex="1">
          <mxGeometry y="182" width="220" height="26" as="geometry" />
        </mxCell>
        <mxCell id="0_BEZdi_rXg5MvRT5GVO-48" value="- active: int" style="text;strokeColor=none;fillColor=none;align=left;verticalAlign=top;spacingLeft=4;spacingRight=4;overflow=hidden;rotatable=0;points=[[0,0.5],[1,0.5]];portConstraint=eastwest;whiteSpace=wrap;html=1;fontSize=16;" parent="0_BEZdi_rXg5MvRT5GVO-40" vertex="1">
          <mxGeometry y="208" width="220" height="26" as="geometry" />
        </mxCell>
        <mxCell id="0_BEZdi_rXg5MvRT5GVO-49" value="- created_at: datetime" style="text;strokeColor=none;fillColor=none;align=left;verticalAlign=top;spacingLeft=4;spacingRight=4;overflow=hidden;rotatable=0;points=[[0,0.5],[1,0.5]];portConstraint=eastwest;whiteSpace=wrap;html=1;fontSize=16;" parent="0_BEZdi_rXg5MvRT5GVO-40" vertex="1">
          <mxGeometry y="234" width="220" height="26" as="geometry" />
        </mxCell>
        <mxCell id="0_BEZdi_rXg5MvRT5GVO-50" value="- update_at: datetime" style="text;strokeColor=none;fillColor=none;align=left;verticalAlign=top;spacingLeft=4;spacingRight=4;overflow=hidden;rotatable=0;points=[[0,0.5],[1,0.5]];portConstraint=eastwest;whiteSpace=wrap;html=1;fontSize=16;" parent="0_BEZdi_rXg5MvRT5GVO-40" vertex="1">
          <mxGeometry y="260" width="220" height="26" as="geometry" />
        </mxCell>
        <mxCell id="0_BEZdi_rXg5MvRT5GVO-51" value="- deleted_at: datetime" style="text;strokeColor=none;fillColor=none;align=left;verticalAlign=top;spacingLeft=4;spacingRight=4;overflow=hidden;rotatable=0;points=[[0,0.5],[1,0.5]];portConstraint=eastwest;whiteSpace=wrap;html=1;fontSize=16;" parent="0_BEZdi_rXg5MvRT5GVO-40" vertex="1">
          <mxGeometry y="286" width="220" height="26" as="geometry" />
        </mxCell>
        <mxCell id="0_BEZdi_rXg5MvRT5GVO-52" value="- level: int" style="text;strokeColor=none;fillColor=none;align=left;verticalAlign=top;spacingLeft=4;spacingRight=4;overflow=hidden;rotatable=0;points=[[0,0.5],[1,0.5]];portConstraint=eastwest;whiteSpace=wrap;html=1;fontSize=16;" parent="0_BEZdi_rXg5MvRT5GVO-40" vertex="1">
          <mxGeometry y="312" width="220" height="26" as="geometry" />
        </mxCell>
        <mxCell id="0_BEZdi_rXg5MvRT5GVO-53" value="- renember_token: varchar" style="text;strokeColor=none;fillColor=none;align=left;verticalAlign=top;spacingLeft=4;spacingRight=4;overflow=hidden;rotatable=0;points=[[0,0.5],[1,0.5]];portConstraint=eastwest;whiteSpace=wrap;html=1;fontSize=16;" parent="0_BEZdi_rXg5MvRT5GVO-40" vertex="1">
          <mxGeometry y="338" width="220" height="26" as="geometry" />
        </mxCell>
        <mxCell id="0_BEZdi_rXg5MvRT5GVO-54" value="- email_verified_at: datetime" style="text;strokeColor=none;fillColor=none;align=left;verticalAlign=top;spacingLeft=4;spacingRight=4;overflow=hidden;rotatable=0;points=[[0,0.5],[1,0.5]];portConstraint=eastwest;whiteSpace=wrap;html=1;fontSize=16;" parent="0_BEZdi_rXg5MvRT5GVO-40" vertex="1">
          <mxGeometry y="364" width="220" height="26" as="geometry" />
        </mxCell>
        <mxCell id="0_BEZdi_rXg5MvRT5GVO-55" value="- acess_external: varchar" style="text;strokeColor=none;fillColor=none;align=left;verticalAlign=top;spacingLeft=4;spacingRight=4;overflow=hidden;rotatable=0;points=[[0,0.5],[1,0.5]];portConstraint=eastwest;whiteSpace=wrap;html=1;fontSize=16;" parent="0_BEZdi_rXg5MvRT5GVO-40" vertex="1">
          <mxGeometry y="390" width="220" height="26" as="geometry" />
        </mxCell>
        <mxCell id="0_BEZdi_rXg5MvRT5GVO-56" value="- graph_statistic: varchar" style="text;strokeColor=none;fillColor=none;align=left;verticalAlign=top;spacingLeft=4;spacingRight=4;overflow=hidden;rotatable=0;points=[[0,0.5],[1,0.5]];portConstraint=eastwest;whiteSpace=wrap;html=1;fontSize=16;" parent="0_BEZdi_rXg5MvRT5GVO-40" vertex="1">
          <mxGeometry y="416" width="220" height="26" as="geometry" />
        </mxCell>
        <mxCell id="0_BEZdi_rXg5MvRT5GVO-57" value="Group_name" style="swimlane;fontStyle=0;childLayout=stackLayout;horizontal=1;startSize=26;fillColor=none;horizontalStack=0;resizeParent=1;resizeParentMax=0;resizeLast=0;collapsible=1;marginBottom=0;whiteSpace=wrap;html=1;fontSize=16;" parent="1" vertex="1">
          <mxGeometry x="742" y="-256" width="240" height="78" as="geometry" />
        </mxCell>
        <mxCell id="0_BEZdi_rXg5MvRT5GVO-58" value="- project_id: int" style="text;strokeColor=none;fillColor=none;align=left;verticalAlign=top;spacingLeft=4;spacingRight=4;overflow=hidden;rotatable=0;points=[[0,0.5],[1,0.5]];portConstraint=eastwest;whiteSpace=wrap;html=1;fontSize=16;" parent="0_BEZdi_rXg5MvRT5GVO-57" vertex="1">
          <mxGeometry y="26" width="240" height="26" as="geometry" />
        </mxCell>
        <mxCell id="0_BEZdi_rXg5MvRT5GVO-59" value="- user_id: int" style="text;strokeColor=none;fillColor=none;align=left;verticalAlign=top;spacingLeft=4;spacingRight=4;overflow=hidden;rotatable=0;points=[[0,0.5],[1,0.5]];portConstraint=eastwest;whiteSpace=wrap;html=1;fontSize=16;" parent="0_BEZdi_rXg5MvRT5GVO-57" vertex="1">
          <mxGeometry y="52" width="240" height="26" as="geometry" />
        </mxCell>
        <mxCell id="0_BEZdi_rXg5MvRT5GVO-60" value="Group" style="swimlane;fontStyle=0;childLayout=stackLayout;horizontal=1;startSize=26;fillColor=none;horizontalStack=0;resizeParent=1;resizeParentMax=0;resizeLast=0;collapsible=1;marginBottom=0;whiteSpace=wrap;html=1;fontSize=16;" parent="1" vertex="1">
          <mxGeometry x="1097" y="-274" width="240" height="78" as="geometry" />
        </mxCell>
        <mxCell id="0_BEZdi_rXg5MvRT5GVO-61" value="- id: int" style="text;strokeColor=none;fillColor=none;align=left;verticalAlign=top;spacingLeft=4;spacingRight=4;overflow=hidden;rotatable=0;points=[[0,0.5],[1,0.5]];portConstraint=eastwest;whiteSpace=wrap;html=1;fontSize=16;" parent="0_BEZdi_rXg5MvRT5GVO-60" vertex="1">
          <mxGeometry y="26" width="240" height="26" as="geometry" />
        </mxCell>
        <mxCell id="0_BEZdi_rXg5MvRT5GVO-62" value="- group_name: varchar" style="text;strokeColor=none;fillColor=none;align=left;verticalAlign=top;spacingLeft=4;spacingRight=4;overflow=hidden;rotatable=0;points=[[0,0.5],[1,0.5]];portConstraint=eastwest;whiteSpace=wrap;html=1;fontSize=16;" parent="0_BEZdi_rXg5MvRT5GVO-60" vertex="1">
          <mxGeometry y="52" width="240" height="26" as="geometry" />
        </mxCell>
        <mxCell id="0_BEZdi_rXg5MvRT5GVO-63" value="Task" style="swimlane;fontStyle=0;childLayout=stackLayout;horizontal=1;startSize=26;fillColor=none;horizontalStack=0;resizeParent=1;resizeParentMax=0;resizeLast=0;collapsible=1;marginBottom=0;whiteSpace=wrap;html=1;fontSize=16;" parent="1" vertex="1">
          <mxGeometry x="10" y="-296" width="262" height="468" as="geometry">
            <mxRectangle x="351" y="266" width="90" height="30" as="alternateBounds" />
          </mxGeometry>
        </mxCell>
        <mxCell id="0_BEZdi_rXg5MvRT5GVO-64" value="- id: int" style="text;strokeColor=none;fillColor=none;align=left;verticalAlign=top;spacingLeft=4;spacingRight=4;overflow=hidden;rotatable=0;points=[[0,0.5],[1,0.5]];portConstraint=eastwest;whiteSpace=wrap;html=1;fontSize=16;" parent="0_BEZdi_rXg5MvRT5GVO-63" vertex="1">
          <mxGeometry y="26" width="262" height="26" as="geometry" />
        </mxCell>
        <mxCell id="0_BEZdi_rXg5MvRT5GVO-65" value="- title: varchar" style="text;strokeColor=none;fillColor=none;align=left;verticalAlign=top;spacingLeft=4;spacingRight=4;overflow=hidden;rotatable=0;points=[[0,0.5],[1,0.5]];portConstraint=eastwest;whiteSpace=wrap;html=1;fontSize=16;" parent="0_BEZdi_rXg5MvRT5GVO-63" vertex="1">
          <mxGeometry y="52" width="262" height="26" as="geometry" />
        </mxCell>
        <mxCell id="0_BEZdi_rXg5MvRT5GVO-66" value="- creation_date: datetime" style="text;strokeColor=none;fillColor=none;align=left;verticalAlign=top;spacingLeft=4;spacingRight=4;overflow=hidden;rotatable=0;points=[[0,0.5],[1,0.5]];portConstraint=eastwest;whiteSpace=wrap;html=1;fontSize=16;" parent="0_BEZdi_rXg5MvRT5GVO-63" vertex="1">
          <mxGeometry y="78" width="262" height="26" as="geometry" />
        </mxCell>
        <mxCell id="0_BEZdi_rXg5MvRT5GVO-67" value="- module_id: int" style="text;strokeColor=none;fillColor=none;align=left;verticalAlign=top;spacingLeft=4;spacingRight=4;overflow=hidden;rotatable=0;points=[[0,0.5],[1,0.5]];portConstraint=eastwest;whiteSpace=wrap;html=1;fontSize=16;" parent="0_BEZdi_rXg5MvRT5GVO-63" vertex="1">
          <mxGeometry y="104" width="262" height="26" as="geometry" />
        </mxCell>
        <mxCell id="0_BEZdi_rXg5MvRT5GVO-68" value="- status_id: int" style="text;strokeColor=none;fillColor=none;align=left;verticalAlign=top;spacingLeft=4;spacingRight=4;overflow=hidden;rotatable=0;points=[[0,0.5],[1,0.5]];portConstraint=eastwest;whiteSpace=wrap;html=1;fontSize=16;" parent="0_BEZdi_rXg5MvRT5GVO-63" vertex="1">
          <mxGeometry y="130" width="262" height="26" as="geometry" />
        </mxCell>
        <mxCell id="0_BEZdi_rXg5MvRT5GVO-69" value="-&amp;nbsp;time_to_conclude: date" style="text;strokeColor=none;fillColor=none;align=left;verticalAlign=top;spacingLeft=4;spacingRight=4;overflow=hidden;rotatable=0;points=[[0,0.5],[1,0.5]];portConstraint=eastwest;whiteSpace=wrap;html=1;fontSize=16;" parent="0_BEZdi_rXg5MvRT5GVO-63" vertex="1">
          <mxGeometry y="156" width="262" height="26" as="geometry" />
        </mxCell>
        <mxCell id="0_BEZdi_rXg5MvRT5GVO-70" value="- prioridade: int" style="text;strokeColor=none;fillColor=none;align=left;verticalAlign=top;spacingLeft=4;spacingRight=4;overflow=hidden;rotatable=0;points=[[0,0.5],[1,0.5]];portConstraint=eastwest;whiteSpace=wrap;html=1;fontSize=16;" parent="0_BEZdi_rXg5MvRT5GVO-63" vertex="1">
          <mxGeometry y="182" width="262" height="26" as="geometry" />
        </mxCell>
        <mxCell id="0_BEZdi_rXg5MvRT5GVO-71" value="- urgent: int" style="text;strokeColor=none;fillColor=none;align=left;verticalAlign=top;spacingLeft=4;spacingRight=4;overflow=hidden;rotatable=0;points=[[0,0.5],[1,0.5]];portConstraint=eastwest;whiteSpace=wrap;html=1;fontSize=16;" parent="0_BEZdi_rXg5MvRT5GVO-63" vertex="1">
          <mxGeometry y="208" width="262" height="26" as="geometry" />
        </mxCell>
        <mxCell id="0_BEZdi_rXg5MvRT5GVO-72" value="- description_task: text&lt;br&gt;" style="text;strokeColor=none;fillColor=none;align=left;verticalAlign=top;spacingLeft=4;spacingRight=4;overflow=hidden;rotatable=0;points=[[0,0.5],[1,0.5]];portConstraint=eastwest;whiteSpace=wrap;html=1;fontSize=16;" parent="0_BEZdi_rXg5MvRT5GVO-63" vertex="1">
          <mxGeometry y="234" width="262" height="26" as="geometry" />
        </mxCell>
        <mxCell id="0_BEZdi_rXg5MvRT5GVO-73" value="- category_task: int" style="text;strokeColor=none;fillColor=none;align=left;verticalAlign=top;spacingLeft=4;spacingRight=4;overflow=hidden;rotatable=0;points=[[0,0.5],[1,0.5]];portConstraint=eastwest;whiteSpace=wrap;html=1;fontSize=16;" parent="0_BEZdi_rXg5MvRT5GVO-63" vertex="1">
          <mxGeometry y="260" width="262" height="26" as="geometry" />
        </mxCell>
        <mxCell id="0_BEZdi_rXg5MvRT5GVO-74" value="- tags_id: int" style="text;strokeColor=none;fillColor=none;align=left;verticalAlign=top;spacingLeft=4;spacingRight=4;overflow=hidden;rotatable=0;points=[[0,0.5],[1,0.5]];portConstraint=eastwest;whiteSpace=wrap;html=1;fontSize=16;" parent="0_BEZdi_rXg5MvRT5GVO-63" vertex="1">
          <mxGeometry y="286" width="262" height="26" as="geometry" />
        </mxCell>
        <mxCell id="0_BEZdi_rXg5MvRT5GVO-75" value="-&amp;nbsp;complexity: int" style="text;strokeColor=none;fillColor=none;align=left;verticalAlign=top;spacingLeft=4;spacingRight=4;overflow=hidden;rotatable=0;points=[[0,0.5],[1,0.5]];portConstraint=eastwest;whiteSpace=wrap;html=1;fontSize=16;" parent="0_BEZdi_rXg5MvRT5GVO-63" vertex="1">
          <mxGeometry y="312" width="262" height="26" as="geometry" />
        </mxCell>
        <mxCell id="0_BEZdi_rXg5MvRT5GVO-76" value="- updated_at: datetime" style="text;strokeColor=none;fillColor=none;align=left;verticalAlign=top;spacingLeft=4;spacingRight=4;overflow=hidden;rotatable=0;points=[[0,0.5],[1,0.5]];portConstraint=eastwest;whiteSpace=wrap;html=1;fontSize=16;" parent="0_BEZdi_rXg5MvRT5GVO-63" vertex="1">
          <mxGeometry y="338" width="262" height="26" as="geometry" />
        </mxCell>
        <mxCell id="0_BEZdi_rXg5MvRT5GVO-77" value="- deleted_at: datetime" style="text;strokeColor=none;fillColor=none;align=left;verticalAlign=top;spacingLeft=4;spacingRight=4;overflow=hidden;rotatable=0;points=[[0,0.5],[1,0.5]];portConstraint=eastwest;whiteSpace=wrap;html=1;fontSize=16;" parent="0_BEZdi_rXg5MvRT5GVO-63" vertex="1">
          <mxGeometry y="364" width="262" height="26" as="geometry" />
        </mxCell>
        <mxCell id="0_BEZdi_rXg5MvRT5GVO-78" value="- date_concluded: date" style="text;strokeColor=none;fillColor=none;align=left;verticalAlign=top;spacingLeft=4;spacingRight=4;overflow=hidden;rotatable=0;points=[[0,0.5],[1,0.5]];portConstraint=eastwest;whiteSpace=wrap;html=1;fontSize=16;" parent="0_BEZdi_rXg5MvRT5GVO-63" vertex="1">
          <mxGeometry y="390" width="262" height="26" as="geometry" />
        </mxCell>
        <mxCell id="0_BEZdi_rXg5MvRT5GVO-79" value="- reporteBug_id: int" style="text;strokeColor=none;fillColor=none;align=left;verticalAlign=top;spacingLeft=4;spacingRight=4;overflow=hidden;rotatable=0;points=[[0,0.5],[1,0.5]];portConstraint=eastwest;whiteSpace=wrap;html=1;fontSize=16;" parent="0_BEZdi_rXg5MvRT5GVO-63" vertex="1">
          <mxGeometry y="416" width="262" height="26" as="geometry" />
        </mxCell>
        <mxCell id="0_BEZdi_rXg5MvRT5GVO-80" value="- sugestion_id: int" style="text;strokeColor=none;fillColor=none;align=left;verticalAlign=top;spacingLeft=4;spacingRight=4;overflow=hidden;rotatable=0;points=[[0,0.5],[1,0.5]];portConstraint=eastwest;whiteSpace=wrap;html=1;fontSize=16;" parent="0_BEZdi_rXg5MvRT5GVO-63" vertex="1">
          <mxGeometry y="442" width="262" height="26" as="geometry" />
        </mxCell>
        <mxCell id="0_BEZdi_rXg5MvRT5GVO-81" value="Module" style="swimlane;fontStyle=0;childLayout=stackLayout;horizontal=1;startSize=26;fillColor=none;horizontalStack=0;resizeParent=1;resizeParentMax=0;resizeLast=0;collapsible=1;marginBottom=0;whiteSpace=wrap;html=1;fontSize=16;" parent="1" vertex="1">
          <mxGeometry x="377" y="90" width="262" height="156" as="geometry">
            <mxRectangle x="351" y="266" width="90" height="30" as="alternateBounds" />
          </mxGeometry>
        </mxCell>
        <mxCell id="0_BEZdi_rXg5MvRT5GVO-82" value="- id: int" style="text;strokeColor=none;fillColor=none;align=left;verticalAlign=top;spacingLeft=4;spacingRight=4;overflow=hidden;rotatable=0;points=[[0,0.5],[1,0.5]];portConstraint=eastwest;whiteSpace=wrap;html=1;fontSize=16;" parent="0_BEZdi_rXg5MvRT5GVO-81" vertex="1">
          <mxGeometry y="26" width="262" height="26" as="geometry" />
        </mxCell>
        <mxCell id="0_BEZdi_rXg5MvRT5GVO-83" value="- name_module: varchar" style="text;strokeColor=none;fillColor=none;align=left;verticalAlign=top;spacingLeft=4;spacingRight=4;overflow=hidden;rotatable=0;points=[[0,0.5],[1,0.5]];portConstraint=eastwest;whiteSpace=wrap;html=1;fontSize=16;" parent="0_BEZdi_rXg5MvRT5GVO-81" vertex="1">
          <mxGeometry y="52" width="262" height="26" as="geometry" />
        </mxCell>
        <mxCell id="0_BEZdi_rXg5MvRT5GVO-84" value="- project_id: int" style="text;strokeColor=none;fillColor=none;align=left;verticalAlign=top;spacingLeft=4;spacingRight=4;overflow=hidden;rotatable=0;points=[[0,0.5],[1,0.5]];portConstraint=eastwest;whiteSpace=wrap;html=1;fontSize=16;" parent="0_BEZdi_rXg5MvRT5GVO-81" vertex="1">
          <mxGeometry y="78" width="262" height="26" as="geometry" />
        </mxCell>
        <mxCell id="0_BEZdi_rXg5MvRT5GVO-85" value="- creation_date: datetime" style="text;strokeColor=none;fillColor=none;align=left;verticalAlign=top;spacingLeft=4;spacingRight=4;overflow=hidden;rotatable=0;points=[[0,0.5],[1,0.5]];portConstraint=eastwest;whiteSpace=wrap;html=1;fontSize=16;" parent="0_BEZdi_rXg5MvRT5GVO-81" vertex="1">
          <mxGeometry y="104" width="262" height="26" as="geometry" />
        </mxCell>
        <mxCell id="0_BEZdi_rXg5MvRT5GVO-86" value="- start_date_project: date" style="text;strokeColor=none;fillColor=none;align=left;verticalAlign=top;spacingLeft=4;spacingRight=4;overflow=hidden;rotatable=0;points=[[0,0.5],[1,0.5]];portConstraint=eastwest;whiteSpace=wrap;html=1;fontSize=16;" parent="0_BEZdi_rXg5MvRT5GVO-81" vertex="1">
          <mxGeometry y="130" width="262" height="26" as="geometry" />
        </mxCell>
        <mxCell id="0_BEZdi_rXg5MvRT5GVO-87" value="Status" style="swimlane;fontStyle=0;childLayout=stackLayout;horizontal=1;startSize=26;fillColor=none;horizontalStack=0;resizeParent=1;resizeParentMax=0;resizeLast=0;collapsible=1;marginBottom=0;whiteSpace=wrap;html=1;fontSize=16;" parent="1" vertex="1">
          <mxGeometry x="382" y="-51" width="262" height="104" as="geometry">
            <mxRectangle x="351" y="266" width="90" height="30" as="alternateBounds" />
          </mxGeometry>
        </mxCell>
        <mxCell id="0_BEZdi_rXg5MvRT5GVO-88" value="- id: int" style="text;strokeColor=none;fillColor=none;align=left;verticalAlign=top;spacingLeft=4;spacingRight=4;overflow=hidden;rotatable=0;points=[[0,0.5],[1,0.5]];portConstraint=eastwest;whiteSpace=wrap;html=1;fontSize=16;" parent="0_BEZdi_rXg5MvRT5GVO-87" vertex="1">
          <mxGeometry y="26" width="262" height="26" as="geometry" />
        </mxCell>
        <mxCell id="0_BEZdi_rXg5MvRT5GVO-89" value="- name_status: varchar" style="text;strokeColor=none;fillColor=none;align=left;verticalAlign=top;spacingLeft=4;spacingRight=4;overflow=hidden;rotatable=0;points=[[0,0.5],[1,0.5]];portConstraint=eastwest;whiteSpace=wrap;html=1;fontSize=16;" parent="0_BEZdi_rXg5MvRT5GVO-87" vertex="1">
          <mxGeometry y="52" width="262" height="26" as="geometry" />
        </mxCell>
        <mxCell id="0_BEZdi_rXg5MvRT5GVO-90" value="- status_color: varchar" style="text;strokeColor=none;fillColor=none;align=left;verticalAlign=top;spacingLeft=4;spacingRight=4;overflow=hidden;rotatable=0;points=[[0,0.5],[1,0.5]];portConstraint=eastwest;whiteSpace=wrap;html=1;fontSize=16;" parent="0_BEZdi_rXg5MvRT5GVO-87" vertex="1">
          <mxGeometry y="78" width="262" height="26" as="geometry" />
        </mxCell>
        <mxCell id="0_BEZdi_rXg5MvRT5GVO-91" style="edgeStyle=none;curved=1;rounded=0;orthogonalLoop=1;jettySize=auto;html=1;exitX=0.5;exitY=0;exitDx=0;exitDy=0;entryX=0.498;entryY=1.045;entryDx=0;entryDy=0;entryPerimeter=0;fontSize=12;startSize=8;endSize=8;endArrow=none;endFill=0;" parent="1" source="0_BEZdi_rXg5MvRT5GVO-92" target="0_BEZdi_rXg5MvRT5GVO-80" edge="1">
          <mxGeometry relative="1" as="geometry" />
        </mxCell>
        <mxCell id="0_BEZdi_rXg5MvRT5GVO-92" value="Files" style="swimlane;fontStyle=0;childLayout=stackLayout;horizontal=1;startSize=26;fillColor=none;horizontalStack=0;resizeParent=1;resizeParentMax=0;resizeLast=0;collapsible=1;marginBottom=0;whiteSpace=wrap;html=1;fontSize=16;" parent="1" vertex="1">
          <mxGeometry x="21" y="248" width="240" height="208" as="geometry" />
        </mxCell>
        <mxCell id="0_BEZdi_rXg5MvRT5GVO-93" value="- id" style="text;strokeColor=none;fillColor=none;align=left;verticalAlign=top;spacingLeft=4;spacingRight=4;overflow=hidden;rotatable=0;points=[[0,0.5],[1,0.5]];portConstraint=eastwest;whiteSpace=wrap;html=1;fontSize=16;" parent="0_BEZdi_rXg5MvRT5GVO-92" vertex="1">
          <mxGeometry y="26" width="240" height="26" as="geometry" />
        </mxCell>
        <mxCell id="0_BEZdi_rXg5MvRT5GVO-94" value="- name: varchar" style="text;strokeColor=none;fillColor=none;align=left;verticalAlign=top;spacingLeft=4;spacingRight=4;overflow=hidden;rotatable=0;points=[[0,0.5],[1,0.5]];portConstraint=eastwest;whiteSpace=wrap;html=1;fontSize=16;" parent="0_BEZdi_rXg5MvRT5GVO-92" vertex="1">
          <mxGeometry y="52" width="240" height="26" as="geometry" />
        </mxCell>
        <mxCell id="0_BEZdi_rXg5MvRT5GVO-95" value="- format: varchar&amp;nbsp;" style="text;strokeColor=none;fillColor=none;align=left;verticalAlign=top;spacingLeft=4;spacingRight=4;overflow=hidden;rotatable=0;points=[[0,0.5],[1,0.5]];portConstraint=eastwest;whiteSpace=wrap;html=1;fontSize=16;" parent="0_BEZdi_rXg5MvRT5GVO-92" vertex="1">
          <mxGeometry y="78" width="240" height="26" as="geometry" />
        </mxCell>
        <mxCell id="0_BEZdi_rXg5MvRT5GVO-96" value="- path: varchar" style="text;strokeColor=none;fillColor=none;align=left;verticalAlign=top;spacingLeft=4;spacingRight=4;overflow=hidden;rotatable=0;points=[[0,0.5],[1,0.5]];portConstraint=eastwest;whiteSpace=wrap;html=1;fontSize=16;" parent="0_BEZdi_rXg5MvRT5GVO-92" vertex="1">
          <mxGeometry y="104" width="240" height="26" as="geometry" />
        </mxCell>
        <mxCell id="0_BEZdi_rXg5MvRT5GVO-97" value="- created_at: datetime" style="text;strokeColor=none;fillColor=none;align=left;verticalAlign=top;spacingLeft=4;spacingRight=4;overflow=hidden;rotatable=0;points=[[0,0.5],[1,0.5]];portConstraint=eastwest;whiteSpace=wrap;html=1;fontSize=16;" parent="0_BEZdi_rXg5MvRT5GVO-92" vertex="1">
          <mxGeometry y="130" width="240" height="26" as="geometry" />
        </mxCell>
        <mxCell id="0_BEZdi_rXg5MvRT5GVO-98" value="- users_id: int" style="text;strokeColor=none;fillColor=none;align=left;verticalAlign=top;spacingLeft=4;spacingRight=4;overflow=hidden;rotatable=0;points=[[0,0.5],[1,0.5]];portConstraint=eastwest;whiteSpace=wrap;html=1;fontSize=16;" parent="0_BEZdi_rXg5MvRT5GVO-92" vertex="1">
          <mxGeometry y="156" width="240" height="26" as="geometry" />
        </mxCell>
        <mxCell id="0_BEZdi_rXg5MvRT5GVO-99" value="- task_id: int" style="text;strokeColor=none;fillColor=none;align=left;verticalAlign=top;spacingLeft=4;spacingRight=4;overflow=hidden;rotatable=0;points=[[0,0.5],[1,0.5]];portConstraint=eastwest;whiteSpace=wrap;html=1;fontSize=16;" parent="0_BEZdi_rXg5MvRT5GVO-92" vertex="1">
          <mxGeometry y="182" width="240" height="26" as="geometry" />
        </mxCell>
        <mxCell id="0_BEZdi_rXg5MvRT5GVO-100" value="Project" style="swimlane;fontStyle=0;childLayout=stackLayout;horizontal=1;startSize=26;fillColor=none;horizontalStack=0;resizeParent=1;resizeParentMax=0;resizeLast=0;collapsible=1;marginBottom=0;whiteSpace=wrap;html=1;fontSize=16;" parent="1" vertex="1">
          <mxGeometry x="752" y="-140" width="210" height="488" as="geometry">
            <mxRectangle x="351" y="266" width="90" height="30" as="alternateBounds" />
          </mxGeometry>
        </mxCell>
        <mxCell id="0_BEZdi_rXg5MvRT5GVO-101" value="- id: int" style="text;strokeColor=none;fillColor=none;align=left;verticalAlign=top;spacingLeft=4;spacingRight=4;overflow=hidden;rotatable=0;points=[[0,0.5],[1,0.5]];portConstraint=eastwest;whiteSpace=wrap;html=1;fontSize=16;" parent="0_BEZdi_rXg5MvRT5GVO-100" vertex="1">
          <mxGeometry y="26" width="210" height="22" as="geometry" />
        </mxCell>
        <mxCell id="0_BEZdi_rXg5MvRT5GVO-102" value="- name_project: varchar" style="text;strokeColor=none;fillColor=none;align=left;verticalAlign=top;spacingLeft=4;spacingRight=4;overflow=hidden;rotatable=0;points=[[0,0.5],[1,0.5]];portConstraint=eastwest;whiteSpace=wrap;html=1;fontSize=16;" parent="0_BEZdi_rXg5MvRT5GVO-100" vertex="1">
          <mxGeometry y="48" width="210" height="26" as="geometry" />
        </mxCell>
        <mxCell id="0_BEZdi_rXg5MvRT5GVO-103" value="- description_project: text" style="text;strokeColor=none;fillColor=none;align=left;verticalAlign=top;spacingLeft=4;spacingRight=4;overflow=hidden;rotatable=0;points=[[0,0.5],[1,0.5]];portConstraint=eastwest;whiteSpace=wrap;html=1;fontSize=16;" parent="0_BEZdi_rXg5MvRT5GVO-100" vertex="1">
          <mxGeometry y="74" width="210" height="26" as="geometry" />
        </mxCell>
        <mxCell id="0_BEZdi_rXg5MvRT5GVO-104" value="- status_id: int" style="text;strokeColor=none;fillColor=none;align=left;verticalAlign=top;spacingLeft=4;spacingRight=4;overflow=hidden;rotatable=0;points=[[0,0.5],[1,0.5]];portConstraint=eastwest;whiteSpace=wrap;html=1;fontSize=16;" parent="0_BEZdi_rXg5MvRT5GVO-100" vertex="1">
          <mxGeometry y="100" width="210" height="26" as="geometry" />
        </mxCell>
        <mxCell id="0_BEZdi_rXg5MvRT5GVO-105" value="- start_project: date" style="text;strokeColor=none;fillColor=none;align=left;verticalAlign=top;spacingLeft=4;spacingRight=4;overflow=hidden;rotatable=0;points=[[0,0.5],[1,0.5]];portConstraint=eastwest;whiteSpace=wrap;html=1;fontSize=16;" parent="0_BEZdi_rXg5MvRT5GVO-100" vertex="1">
          <mxGeometry y="126" width="210" height="26" as="geometry" />
        </mxCell>
        <mxCell id="0_BEZdi_rXg5MvRT5GVO-106" value="- archived: tinyint" style="text;strokeColor=none;fillColor=none;align=left;verticalAlign=top;spacingLeft=4;spacingRight=4;overflow=hidden;rotatable=0;points=[[0,0.5],[1,0.5]];portConstraint=eastwest;whiteSpace=wrap;html=1;fontSize=16;" parent="0_BEZdi_rXg5MvRT5GVO-100" vertex="1">
          <mxGeometry y="152" width="210" height="26" as="geometry" />
        </mxCell>
        <mxCell id="0_BEZdi_rXg5MvRT5GVO-107" value="- position: int" style="text;strokeColor=none;fillColor=none;align=left;verticalAlign=top;spacingLeft=4;spacingRight=4;overflow=hidden;rotatable=0;points=[[0,0.5],[1,0.5]];portConstraint=eastwest;whiteSpace=wrap;html=1;fontSize=16;" parent="0_BEZdi_rXg5MvRT5GVO-100" vertex="1">
          <mxGeometry y="178" width="210" height="26" as="geometry" />
        </mxCell>
        <mxCell id="0_BEZdi_rXg5MvRT5GVO-108" value="- situation: text" style="text;strokeColor=none;fillColor=none;align=left;verticalAlign=top;spacingLeft=4;spacingRight=4;overflow=hidden;rotatable=0;points=[[0,0.5],[1,0.5]];portConstraint=eastwest;whiteSpace=wrap;html=1;fontSize=16;" parent="0_BEZdi_rXg5MvRT5GVO-100" vertex="1">
          <mxGeometry y="204" width="210" height="26" as="geometry" />
        </mxCell>
        <mxCell id="0_BEZdi_rXg5MvRT5GVO-109" value="- Calendar: text" style="text;strokeColor=none;fillColor=none;align=left;verticalAlign=top;spacingLeft=4;spacingRight=4;overflow=hidden;rotatable=0;points=[[0,0.5],[1,0.5]];portConstraint=eastwest;whiteSpace=wrap;html=1;fontSize=16;" parent="0_BEZdi_rXg5MvRT5GVO-100" vertex="1">
          <mxGeometry y="230" width="210" height="26" as="geometry" />
        </mxCell>
        <mxCell id="0_BEZdi_rXg5MvRT5GVO-110" value="- image: varchar" style="text;strokeColor=none;fillColor=none;align=left;verticalAlign=top;spacingLeft=4;spacingRight=4;overflow=hidden;rotatable=0;points=[[0,0.5],[1,0.5]];portConstraint=eastwest;whiteSpace=wrap;html=1;fontSize=16;" parent="0_BEZdi_rXg5MvRT5GVO-100" vertex="1">
          <mxGeometry y="256" width="210" height="26" as="geometry" />
        </mxCell>
        <mxCell id="0_BEZdi_rXg5MvRT5GVO-111" value="- start_development: date" style="text;strokeColor=none;fillColor=none;align=left;verticalAlign=top;spacingLeft=4;spacingRight=4;overflow=hidden;rotatable=0;points=[[0,0.5],[1,0.5]];portConstraint=eastwest;whiteSpace=wrap;html=1;fontSize=16;" parent="0_BEZdi_rXg5MvRT5GVO-100" vertex="1">
          <mxGeometry y="282" width="210" height="26" as="geometry" />
        </mxCell>
        <mxCell id="0_BEZdi_rXg5MvRT5GVO-112" value="- date_solicitation: date" style="text;strokeColor=none;fillColor=none;align=left;verticalAlign=top;spacingLeft=4;spacingRight=4;overflow=hidden;rotatable=0;points=[[0,0.5],[1,0.5]];portConstraint=eastwest;whiteSpace=wrap;html=1;fontSize=16;" parent="0_BEZdi_rXg5MvRT5GVO-100" vertex="1">
          <mxGeometry y="308" width="210" height="26" as="geometry" />
        </mxCell>
        <mxCell id="0_BEZdi_rXg5MvRT5GVO-113" value="- project_public: int&amp;nbsp;" style="text;strokeColor=none;fillColor=none;align=left;verticalAlign=top;spacingLeft=4;spacingRight=4;overflow=hidden;rotatable=0;points=[[0,0.5],[1,0.5]];portConstraint=eastwest;whiteSpace=wrap;html=1;fontSize=16;" parent="0_BEZdi_rXg5MvRT5GVO-100" vertex="1">
          <mxGeometry y="334" width="210" height="26" as="geometry" />
        </mxCell>
        <mxCell id="0_BEZdi_rXg5MvRT5GVO-114" value="- created_at: datetime" style="text;strokeColor=none;fillColor=none;align=left;verticalAlign=top;spacingLeft=4;spacingRight=4;overflow=hidden;rotatable=0;points=[[0,0.5],[1,0.5]];portConstraint=eastwest;whiteSpace=wrap;html=1;fontSize=16;" parent="0_BEZdi_rXg5MvRT5GVO-100" vertex="1">
          <mxGeometry y="360" width="210" height="26" as="geometry" />
        </mxCell>
        <mxCell id="0_BEZdi_rXg5MvRT5GVO-115" value="- update_at: datetime" style="text;strokeColor=none;fillColor=none;align=left;verticalAlign=top;spacingLeft=4;spacingRight=4;overflow=hidden;rotatable=0;points=[[0,0.5],[1,0.5]];portConstraint=eastwest;whiteSpace=wrap;html=1;fontSize=16;" parent="0_BEZdi_rXg5MvRT5GVO-100" vertex="1">
          <mxGeometry y="386" width="210" height="34" as="geometry" />
        </mxCell>
        <mxCell id="0_BEZdi_rXg5MvRT5GVO-116" value="- sector_id: int" style="text;strokeColor=none;fillColor=none;align=left;verticalAlign=top;spacingLeft=4;spacingRight=4;overflow=hidden;rotatable=0;points=[[0,0.5],[1,0.5]];portConstraint=eastwest;whiteSpace=wrap;html=1;fontSize=16;" parent="0_BEZdi_rXg5MvRT5GVO-100" vertex="1">
          <mxGeometry y="420" width="210" height="34" as="geometry" />
        </mxCell>
        <mxCell id="0_BEZdi_rXg5MvRT5GVO-117" value="- request_date: date" style="text;strokeColor=none;fillColor=none;align=left;verticalAlign=top;spacingLeft=4;spacingRight=4;overflow=hidden;rotatable=0;points=[[0,0.5],[1,0.5]];portConstraint=eastwest;whiteSpace=wrap;html=1;fontSize=16;" parent="0_BEZdi_rXg5MvRT5GVO-100" vertex="1">
          <mxGeometry y="454" width="210" height="34" as="geometry" />
        </mxCell>
        <mxCell id="0_BEZdi_rXg5MvRT5GVO-118" value="Project_group" style="swimlane;fontStyle=0;childLayout=stackLayout;horizontal=1;startSize=26;fillColor=none;horizontalStack=0;resizeParent=1;resizeParentMax=0;resizeLast=0;collapsible=1;marginBottom=0;whiteSpace=wrap;html=1;fontSize=16;" parent="1" vertex="1">
          <mxGeometry x="1072" y="-92" width="240" height="78" as="geometry" />
        </mxCell>
        <mxCell id="0_BEZdi_rXg5MvRT5GVO-119" value="- project_id: int" style="text;strokeColor=none;fillColor=none;align=left;verticalAlign=top;spacingLeft=4;spacingRight=4;overflow=hidden;rotatable=0;points=[[0,0.5],[1,0.5]];portConstraint=eastwest;whiteSpace=wrap;html=1;fontSize=16;" parent="0_BEZdi_rXg5MvRT5GVO-118" vertex="1">
          <mxGeometry y="26" width="240" height="26" as="geometry" />
        </mxCell>
        <mxCell id="0_BEZdi_rXg5MvRT5GVO-120" value="- group_id: int" style="text;strokeColor=none;fillColor=none;align=left;verticalAlign=top;spacingLeft=4;spacingRight=4;overflow=hidden;rotatable=0;points=[[0,0.5],[1,0.5]];portConstraint=eastwest;whiteSpace=wrap;html=1;fontSize=16;" parent="0_BEZdi_rXg5MvRT5GVO-118" vertex="1">
          <mxGeometry y="52" width="240" height="26" as="geometry" />
        </mxCell>
        <mxCell id="0_BEZdi_rXg5MvRT5GVO-121" value="N" style="text;html=1;align=center;verticalAlign=middle;resizable=0;points=[];autosize=1;strokeColor=none;fillColor=none;fontSize=16;" parent="1" vertex="1">
          <mxGeometry x="92" y="220" width="40" height="30" as="geometry" />
        </mxCell>
        <mxCell id="0_BEZdi_rXg5MvRT5GVO-122" value="1" style="text;html=1;align=center;verticalAlign=middle;resizable=0;points=[];autosize=1;strokeColor=none;fillColor=none;fontSize=16;" parent="1" vertex="1">
          <mxGeometry x="92" y="180" width="30" height="30" as="geometry" />
        </mxCell>
        <mxCell id="0_BEZdi_rXg5MvRT5GVO-123" value="Comment" style="swimlane;fontStyle=0;childLayout=stackLayout;horizontal=1;startSize=26;fillColor=none;horizontalStack=0;resizeParent=1;resizeParentMax=0;resizeLast=0;collapsible=1;marginBottom=0;whiteSpace=wrap;html=1;fontSize=16;" parent="1" vertex="1">
          <mxGeometry x="32" y="-570" width="240" height="182" as="geometry" />
        </mxCell>
        <mxCell id="0_BEZdi_rXg5MvRT5GVO-124" value="- id" style="text;strokeColor=none;fillColor=none;align=left;verticalAlign=top;spacingLeft=4;spacingRight=4;overflow=hidden;rotatable=0;points=[[0,0.5],[1,0.5]];portConstraint=eastwest;whiteSpace=wrap;html=1;fontSize=16;" parent="0_BEZdi_rXg5MvRT5GVO-123" vertex="1">
          <mxGeometry y="26" width="240" height="26" as="geometry" />
        </mxCell>
        <mxCell id="0_BEZdi_rXg5MvRT5GVO-125" value="- creation_date: datetime" style="text;strokeColor=none;fillColor=none;align=left;verticalAlign=top;spacingLeft=4;spacingRight=4;overflow=hidden;rotatable=0;points=[[0,0.5],[1,0.5]];portConstraint=eastwest;whiteSpace=wrap;html=1;fontSize=16;" parent="0_BEZdi_rXg5MvRT5GVO-123" vertex="1">
          <mxGeometry y="52" width="240" height="26" as="geometry" />
        </mxCell>
        <mxCell id="0_BEZdi_rXg5MvRT5GVO-126" value="- update_at: datetime" style="text;strokeColor=none;fillColor=none;align=left;verticalAlign=top;spacingLeft=4;spacingRight=4;overflow=hidden;rotatable=0;points=[[0,0.5],[1,0.5]];portConstraint=eastwest;whiteSpace=wrap;html=1;fontSize=16;" parent="0_BEZdi_rXg5MvRT5GVO-123" vertex="1">
          <mxGeometry y="78" width="240" height="26" as="geometry" />
        </mxCell>
        <mxCell id="0_BEZdi_rXg5MvRT5GVO-127" value="- body: text" style="text;strokeColor=none;fillColor=none;align=left;verticalAlign=top;spacingLeft=4;spacingRight=4;overflow=hidden;rotatable=0;points=[[0,0.5],[1,0.5]];portConstraint=eastwest;whiteSpace=wrap;html=1;fontSize=16;" parent="0_BEZdi_rXg5MvRT5GVO-123" vertex="1">
          <mxGeometry y="104" width="240" height="26" as="geometry" />
        </mxCell>
        <mxCell id="0_BEZdi_rXg5MvRT5GVO-128" value="- task_id: int" style="text;strokeColor=none;fillColor=none;align=left;verticalAlign=top;spacingLeft=4;spacingRight=4;overflow=hidden;rotatable=0;points=[[0,0.5],[1,0.5]];portConstraint=eastwest;whiteSpace=wrap;html=1;fontSize=16;" parent="0_BEZdi_rXg5MvRT5GVO-123" vertex="1">
          <mxGeometry y="130" width="240" height="26" as="geometry" />
        </mxCell>
        <mxCell id="0_BEZdi_rXg5MvRT5GVO-129" value="- users_id: int" style="text;strokeColor=none;fillColor=none;align=left;verticalAlign=top;spacingLeft=4;spacingRight=4;overflow=hidden;rotatable=0;points=[[0,0.5],[1,0.5]];portConstraint=eastwest;whiteSpace=wrap;html=1;fontSize=16;" parent="0_BEZdi_rXg5MvRT5GVO-123" vertex="1">
          <mxGeometry y="156" width="240" height="26" as="geometry" />
        </mxCell>
        <mxCell id="0_BEZdi_rXg5MvRT5GVO-130" value="Requestion_sector" style="swimlane;fontStyle=0;childLayout=stackLayout;horizontal=1;startSize=26;fillColor=none;horizontalStack=0;resizeParent=1;resizeParentMax=0;resizeLast=0;collapsible=1;marginBottom=0;whiteSpace=wrap;html=1;fontSize=16;" parent="1" vertex="1">
          <mxGeometry x="1072" y="64" width="240" height="182" as="geometry" />
        </mxCell>
        <mxCell id="0_BEZdi_rXg5MvRT5GVO-131" value="- id: int" style="text;strokeColor=none;fillColor=none;align=left;verticalAlign=top;spacingLeft=4;spacingRight=4;overflow=hidden;rotatable=0;points=[[0,0.5],[1,0.5]];portConstraint=eastwest;whiteSpace=wrap;html=1;fontSize=16;" parent="0_BEZdi_rXg5MvRT5GVO-130" vertex="1">
          <mxGeometry y="26" width="240" height="26" as="geometry" />
        </mxCell>
        <mxCell id="0_BEZdi_rXg5MvRT5GVO-132" value="- name: varchar" style="text;strokeColor=none;fillColor=none;align=left;verticalAlign=top;spacingLeft=4;spacingRight=4;overflow=hidden;rotatable=0;points=[[0,0.5],[1,0.5]];portConstraint=eastwest;whiteSpace=wrap;html=1;fontSize=16;" parent="0_BEZdi_rXg5MvRT5GVO-130" vertex="1">
          <mxGeometry y="52" width="240" height="26" as="geometry" />
        </mxCell>
        <mxCell id="0_BEZdi_rXg5MvRT5GVO-133" value="- descrition: varchar" style="text;strokeColor=none;fillColor=none;align=left;verticalAlign=top;spacingLeft=4;spacingRight=4;overflow=hidden;rotatable=0;points=[[0,0.5],[1,0.5]];portConstraint=eastwest;whiteSpace=wrap;html=1;fontSize=16;" parent="0_BEZdi_rXg5MvRT5GVO-130" vertex="1">
          <mxGeometry y="78" width="240" height="26" as="geometry" />
        </mxCell>
        <mxCell id="0_BEZdi_rXg5MvRT5GVO-134" value="- created_at: datetime" style="text;strokeColor=none;fillColor=none;align=left;verticalAlign=top;spacingLeft=4;spacingRight=4;overflow=hidden;rotatable=0;points=[[0,0.5],[1,0.5]];portConstraint=eastwest;whiteSpace=wrap;html=1;fontSize=16;" parent="0_BEZdi_rXg5MvRT5GVO-130" vertex="1">
          <mxGeometry y="104" width="240" height="26" as="geometry" />
        </mxCell>
        <mxCell id="0_BEZdi_rXg5MvRT5GVO-135" value="- update_at: datetime" style="text;strokeColor=none;fillColor=none;align=left;verticalAlign=top;spacingLeft=4;spacingRight=4;overflow=hidden;rotatable=0;points=[[0,0.5],[1,0.5]];portConstraint=eastwest;whiteSpace=wrap;html=1;fontSize=16;" parent="0_BEZdi_rXg5MvRT5GVO-130" vertex="1">
          <mxGeometry y="130" width="240" height="26" as="geometry" />
        </mxCell>
        <mxCell id="0_BEZdi_rXg5MvRT5GVO-136" value="- deleted_at: datetime" style="text;strokeColor=none;fillColor=none;align=left;verticalAlign=top;spacingLeft=4;spacingRight=4;overflow=hidden;rotatable=0;points=[[0,0.5],[1,0.5]];portConstraint=eastwest;whiteSpace=wrap;html=1;fontSize=16;" parent="0_BEZdi_rXg5MvRT5GVO-130" vertex="1">
          <mxGeometry y="156" width="240" height="26" as="geometry" />
        </mxCell>
        <mxCell id="0_BEZdi_rXg5MvRT5GVO-137" value="Deploy" style="swimlane;fontStyle=0;childLayout=stackLayout;horizontal=1;startSize=26;fillColor=none;horizontalStack=0;resizeParent=1;resizeParentMax=0;resizeLast=0;collapsible=1;marginBottom=0;whiteSpace=wrap;html=1;fontSize=16;" parent="1" vertex="1">
          <mxGeometry x="382" y="280" width="232" height="260" as="geometry" />
        </mxCell>
        <mxCell id="0_BEZdi_rXg5MvRT5GVO-138" value="- updated_at: datetime" style="text;strokeColor=none;fillColor=none;align=left;verticalAlign=top;spacingLeft=4;spacingRight=4;overflow=hidden;rotatable=0;points=[[0,0.5],[1,0.5]];portConstraint=eastwest;whiteSpace=wrap;html=1;fontSize=16;" parent="0_BEZdi_rXg5MvRT5GVO-137" vertex="1">
          <mxGeometry y="26" width="232" height="26" as="geometry" />
        </mxCell>
        <mxCell id="0_BEZdi_rXg5MvRT5GVO-139" value="- id: int" style="text;strokeColor=none;fillColor=none;align=left;verticalAlign=top;spacingLeft=4;spacingRight=4;overflow=hidden;rotatable=0;points=[[0,0.5],[1,0.5]];portConstraint=eastwest;whiteSpace=wrap;html=1;fontSize=16;" parent="0_BEZdi_rXg5MvRT5GVO-137" vertex="1">
          <mxGeometry y="52" width="232" height="26" as="geometry" />
        </mxCell>
        <mxCell id="0_BEZdi_rXg5MvRT5GVO-140" value="- project_id: int" style="text;strokeColor=none;fillColor=none;align=left;verticalAlign=top;spacingLeft=4;spacingRight=4;overflow=hidden;rotatable=0;points=[[0,0.5],[1,0.5]];portConstraint=eastwest;whiteSpace=wrap;html=1;fontSize=16;" parent="0_BEZdi_rXg5MvRT5GVO-137" vertex="1">
          <mxGeometry y="78" width="232" height="26" as="geometry" />
        </mxCell>
        <mxCell id="0_BEZdi_rXg5MvRT5GVO-141" value="- deploy_date: datetime" style="text;strokeColor=none;fillColor=none;align=left;verticalAlign=top;spacingLeft=4;spacingRight=4;overflow=hidden;rotatable=0;points=[[0,0.5],[1,0.5]];portConstraint=eastwest;whiteSpace=wrap;html=1;fontSize=16;" parent="0_BEZdi_rXg5MvRT5GVO-137" vertex="1">
          <mxGeometry y="104" width="232" height="26" as="geometry" />
        </mxCell>
        <mxCell id="0_BEZdi_rXg5MvRT5GVO-142" value="- message: text" style="text;strokeColor=none;fillColor=none;align=left;verticalAlign=top;spacingLeft=4;spacingRight=4;overflow=hidden;rotatable=0;points=[[0,0.5],[1,0.5]];portConstraint=eastwest;whiteSpace=wrap;html=1;fontSize=16;" parent="0_BEZdi_rXg5MvRT5GVO-137" vertex="1">
          <mxGeometry y="130" width="232" height="26" as="geometry" />
        </mxCell>
        <mxCell id="0_BEZdi_rXg5MvRT5GVO-143" value="- confirmed: int" style="text;strokeColor=none;fillColor=none;align=left;verticalAlign=top;spacingLeft=4;spacingRight=4;overflow=hidden;rotatable=0;points=[[0,0.5],[1,0.5]];portConstraint=eastwest;whiteSpace=wrap;html=1;fontSize=16;" parent="0_BEZdi_rXg5MvRT5GVO-137" vertex="1">
          <mxGeometry y="156" width="232" height="26" as="geometry" />
        </mxCell>
        <mxCell id="0_BEZdi_rXg5MvRT5GVO-144" value="- branch: varchar" style="text;strokeColor=none;fillColor=none;align=left;verticalAlign=top;spacingLeft=4;spacingRight=4;overflow=hidden;rotatable=0;points=[[0,0.5],[1,0.5]];portConstraint=eastwest;whiteSpace=wrap;html=1;fontSize=16;" parent="0_BEZdi_rXg5MvRT5GVO-137" vertex="1">
          <mxGeometry y="182" width="232" height="26" as="geometry" />
        </mxCell>
        <mxCell id="0_BEZdi_rXg5MvRT5GVO-145" value="- ip_server: varchar" style="text;strokeColor=none;fillColor=none;align=left;verticalAlign=top;spacingLeft=4;spacingRight=4;overflow=hidden;rotatable=0;points=[[0,0.5],[1,0.5]];portConstraint=eastwest;whiteSpace=wrap;html=1;fontSize=16;" parent="0_BEZdi_rXg5MvRT5GVO-137" vertex="1">
          <mxGeometry y="208" width="232" height="26" as="geometry" />
        </mxCell>
        <mxCell id="0_BEZdi_rXg5MvRT5GVO-146" value="- created_at: datetime" style="text;strokeColor=none;fillColor=none;align=left;verticalAlign=top;spacingLeft=4;spacingRight=4;overflow=hidden;rotatable=0;points=[[0,0.5],[1,0.5]];portConstraint=eastwest;whiteSpace=wrap;html=1;fontSize=16;" parent="0_BEZdi_rXg5MvRT5GVO-137" vertex="1">
          <mxGeometry y="234" width="232" height="26" as="geometry" />
        </mxCell>
        <mxCell id="0_BEZdi_rXg5MvRT5GVO-147" style="edgeStyle=none;curved=1;rounded=0;orthogonalLoop=1;jettySize=auto;html=1;exitX=1;exitY=0.5;exitDx=0;exitDy=0;entryX=0;entryY=0.5;entryDx=0;entryDy=0;fontSize=12;startSize=8;endSize=8;endArrow=none;endFill=0;" parent="1" source="0_BEZdi_rXg5MvRT5GVO-139" target="0_BEZdi_rXg5MvRT5GVO-116" edge="1">
          <mxGeometry relative="1" as="geometry" />
        </mxCell>
        <mxCell id="0_BEZdi_rXg5MvRT5GVO-148" value="1" style="text;html=1;align=center;verticalAlign=middle;resizable=0;points=[];autosize=1;strokeColor=none;fillColor=none;fontSize=16;" parent="1" vertex="1">
          <mxGeometry x="722" y="260" width="30" height="30" as="geometry" />
        </mxCell>
        <mxCell id="0_BEZdi_rXg5MvRT5GVO-149" value="AssociaÃ§Ã£o" style="text;html=1;align=center;verticalAlign=middle;resizable=0;points=[];autosize=1;strokeColor=none;fillColor=none;fontSize=16;rotation=0;" parent="1" vertex="1">
          <mxGeometry x="277" y="-208" width="110" height="30" as="geometry" />
        </mxCell>
        <mxCell id="0_BEZdi_rXg5MvRT5GVO-150" value="1" style="text;html=1;align=center;verticalAlign=middle;resizable=0;points=[];autosize=1;strokeColor=none;fillColor=none;fontSize=16;" parent="1" vertex="1">
          <mxGeometry x="367" y="-250" width="30" height="30" as="geometry" />
        </mxCell>
        <mxCell id="0_BEZdi_rXg5MvRT5GVO-151" value="N" style="text;html=1;align=center;verticalAlign=middle;resizable=0;points=[];autosize=1;strokeColor=none;fillColor=none;fontSize=16;" parent="1" vertex="1">
          <mxGeometry x="272" y="-246" width="40" height="30" as="geometry" />
        </mxCell>
        <mxCell id="0_BEZdi_rXg5MvRT5GVO-152" value="AssociaÃ§Ã£o" style="text;html=1;align=center;verticalAlign=middle;resizable=0;points=[];autosize=1;strokeColor=none;fillColor=none;fontSize=16;rotation=-15;" parent="1" vertex="1">
          <mxGeometry x="987" y="-208" width="110" height="30" as="geometry" />
        </mxCell>
        <mxCell id="0_BEZdi_rXg5MvRT5GVO-153" value="Possui" style="text;html=1;align=center;verticalAlign=middle;resizable=0;points=[];autosize=1;strokeColor=none;fillColor=none;fontSize=16;" parent="1" vertex="1">
          <mxGeometry x="172" y="-362" width="70" height="30" as="geometry" />
        </mxCell>
        <mxCell id="0_BEZdi_rXg5MvRT5GVO-154" value="Possui" style="text;html=1;align=center;verticalAlign=middle;resizable=0;points=[];autosize=1;strokeColor=none;fillColor=none;fontSize=16;" parent="1" vertex="1">
          <mxGeometry x="162" y="190" width="70" height="30" as="geometry" />
        </mxCell>
        <mxCell id="0_BEZdi_rXg5MvRT5GVO-155" value="Possui" style="text;html=1;align=center;verticalAlign=middle;resizable=0;points=[];autosize=1;strokeColor=none;fillColor=none;fontSize=16;rotation=45;" parent="1" vertex="1">
          <mxGeometry x="297" y="-98" width="70" height="30" as="geometry" />
        </mxCell>
        <mxCell id="0_BEZdi_rXg5MvRT5GVO-156" value="Possui" style="text;html=1;align=center;verticalAlign=middle;resizable=0;points=[];autosize=1;strokeColor=none;fillColor=none;fontSize=16;rotation=50;" parent="1" vertex="1">
          <mxGeometry x="297" y="30" width="70" height="30" as="geometry" />
        </mxCell>
        <mxCell id="0_BEZdi_rXg5MvRT5GVO-157" value="AssociaÃ§Ã£o" style="text;html=1;align=center;verticalAlign=middle;resizable=0;points=[];autosize=1;strokeColor=none;fillColor=none;fontSize=16;" parent="1" vertex="1">
          <mxGeometry x="633" y="-216" width="110" height="30" as="geometry" />
        </mxCell>
        <mxCell id="0_BEZdi_rXg5MvRT5GVO-158" value="Contem" style="text;html=1;align=center;verticalAlign=middle;resizable=0;points=[];autosize=1;strokeColor=none;fillColor=none;fontSize=16;" parent="1" vertex="1">
          <mxGeometry x="1112" y="-158" width="80" height="30" as="geometry" />
        </mxCell>
        <mxCell id="0_BEZdi_rXg5MvRT5GVO-159" value="Contem" style="text;html=1;align=center;verticalAlign=middle;resizable=0;points=[];autosize=1;strokeColor=none;fillColor=none;fontSize=16;rotation=-25;" parent="1" vertex="1">
          <mxGeometry x="977" y="-110" width="80" height="30" as="geometry" />
        </mxCell>
        <mxCell id="0_BEZdi_rXg5MvRT5GVO-160" value="Contem" style="text;html=1;align=center;verticalAlign=middle;resizable=0;points=[];autosize=1;strokeColor=none;fillColor=none;fontSize=16;rotation=30;" parent="1" vertex="1">
          <mxGeometry x="992" y="-2" width="80" height="30" as="geometry" />
        </mxCell>
        <mxCell id="0_BEZdi_rXg5MvRT5GVO-161" value="Possui" style="text;html=1;align=center;verticalAlign=middle;resizable=0;points=[];autosize=1;strokeColor=none;fillColor=none;fontSize=16;rotation=-40;" parent="1" vertex="1">
          <mxGeometry x="658" y="-98" width="70" height="30" as="geometry" />
        </mxCell>
        <mxCell id="0_BEZdi_rXg5MvRT5GVO-162" value="Possui" style="text;html=1;align=center;verticalAlign=middle;resizable=0;points=[];autosize=1;strokeColor=none;fillColor=none;fontSize=16;rotation=-15;" parent="1" vertex="1">
          <mxGeometry x="658" y="40" width="70" height="30" as="geometry" />
        </mxCell>
        <mxCell id="0_BEZdi_rXg5MvRT5GVO-163" value="Contem" style="text;html=1;align=center;verticalAlign=middle;resizable=0;points=[];autosize=1;strokeColor=none;fillColor=none;fontSize=16;rotation=-20;" parent="1" vertex="1">
          <mxGeometry x="648" y="280" width="80" height="30" as="geometry" />
        </mxCell>
      </root>
    </mxGraphModel>
  </diagram>
</mxfile>
